G04 #@! TF.FileFunction,Soldermask,Top*
%FSLAX46Y46*%
G04 Gerber Fmt 4.6, Leading zero omitted, Abs format (unit mm)*
G04 Created by KiCad (PCBNEW 4.0.2-4+6225~38~ubuntu15.04.1-stable) date lun. 25 avril 2016 11:18:35 CEST*
%MOMM*%
G01*
G04 APERTURE LIST*
%ADD10C,0.100000*%
%ADD11C,6.800000*%
%ADD12C,1.000000*%
%ADD13C,2.940000*%
%ADD14R,2.940000X2.940000*%
%ADD15C,1.700000*%
%ADD16R,1.700000X1.700000*%
%ADD17R,1.900000X1.650000*%
%ADD18R,1.598880X1.598880*%
%ADD19R,2.127200X2.432000*%
%ADD20O,2.127200X2.432000*%
%ADD21O,3.900120X2.099260*%
%ADD22R,1.700000X1.900000*%
G04 APERTURE END LIST*
D10*
D11*
X71000000Y-24000000D03*
D12*
X73400000Y-24000000D03*
X72697056Y-25697056D03*
X71000000Y-26400000D03*
X69302944Y-25697056D03*
X68600000Y-24000000D03*
X69302944Y-22302944D03*
X71000000Y-21600000D03*
X72697056Y-22302944D03*
D11*
X24000000Y-24000000D03*
D12*
X26400000Y-24000000D03*
X25697056Y-25697056D03*
X24000000Y-26400000D03*
X22302944Y-25697056D03*
X21600000Y-24000000D03*
X22302944Y-22302944D03*
X24000000Y-21600000D03*
X25697056Y-22302944D03*
D11*
X71000000Y-81000000D03*
D12*
X73400000Y-81000000D03*
X72697056Y-82697056D03*
X71000000Y-83400000D03*
X69302944Y-82697056D03*
X68600000Y-81000000D03*
X69302944Y-79302944D03*
X71000000Y-78600000D03*
X72697056Y-79302944D03*
D13*
X49758780Y-36002960D03*
D14*
X64998780Y-36002960D03*
D13*
X65241220Y-61997040D03*
D14*
X50001220Y-61997040D03*
D13*
X45241220Y-67997040D03*
D14*
X30001220Y-67997040D03*
D15*
X29500000Y-54000000D03*
D16*
X32000000Y-54000000D03*
D15*
X40500000Y-54000000D03*
D16*
X43000000Y-54000000D03*
D17*
X32250000Y-48000000D03*
X29750000Y-48000000D03*
X43250000Y-48000000D03*
X40750000Y-48000000D03*
D15*
X54500000Y-54000000D03*
D16*
X52000000Y-54000000D03*
D15*
X65500000Y-54000000D03*
D16*
X63000000Y-54000000D03*
D17*
X51750000Y-48000000D03*
X54250000Y-48000000D03*
X62750000Y-48000000D03*
X65250000Y-48000000D03*
D18*
X50000000Y-22950980D03*
X50000000Y-25049020D03*
D13*
X29758780Y-42002960D03*
D14*
X44998780Y-42002960D03*
D13*
X45241220Y-35997040D03*
D14*
X30001220Y-35997040D03*
D13*
X29758780Y-62002960D03*
D14*
X44998780Y-62002960D03*
D13*
X65241220Y-41997040D03*
D14*
X50001220Y-41997040D03*
D13*
X49758780Y-68002960D03*
D14*
X64998780Y-68002960D03*
X44960000Y-81000000D03*
D13*
X50040000Y-81000000D03*
D19*
X40000000Y-81000000D03*
D20*
X37460000Y-81000000D03*
X34920000Y-81000000D03*
X32380000Y-81000000D03*
D14*
X37540000Y-24000000D03*
D13*
X32460000Y-24000000D03*
D19*
X55000000Y-81000000D03*
D20*
X57540000Y-81000000D03*
X60080000Y-81000000D03*
X62620000Y-81000000D03*
D14*
X62540000Y-24000000D03*
D13*
X57460000Y-24000000D03*
D21*
X23000000Y-34000000D03*
X23000000Y-36540000D03*
X23000000Y-31460000D03*
X23000000Y-46000000D03*
X23000000Y-48540000D03*
X23000000Y-43460000D03*
X23000000Y-58000000D03*
X23000000Y-60540000D03*
X23000000Y-55460000D03*
X23000000Y-70000000D03*
X23000000Y-72540000D03*
X23000000Y-67460000D03*
X72000000Y-34000000D03*
X72000000Y-31460000D03*
X72000000Y-36540000D03*
X72000000Y-46000000D03*
X72000000Y-43460000D03*
X72000000Y-48540000D03*
X72000000Y-58000000D03*
X72000000Y-55460000D03*
X72000000Y-60540000D03*
X72000000Y-70000000D03*
X72000000Y-67460000D03*
X72000000Y-72540000D03*
D22*
X44000000Y-25350000D03*
X44000000Y-22650000D03*
X40000000Y-73650000D03*
X40000000Y-76350000D03*
X37000000Y-73650000D03*
X37000000Y-76350000D03*
X34000000Y-76350000D03*
X34000000Y-73650000D03*
X31000000Y-76350000D03*
X31000000Y-73650000D03*
X55000000Y-73650000D03*
X55000000Y-76350000D03*
X58000000Y-73650000D03*
X58000000Y-76350000D03*
X61000000Y-76350000D03*
X61000000Y-73650000D03*
X64000000Y-76350000D03*
X64000000Y-73650000D03*
D11*
X24000000Y-81000000D03*
D12*
X26400000Y-81000000D03*
X25697056Y-82697056D03*
X24000000Y-83400000D03*
X22302944Y-82697056D03*
X21600000Y-81000000D03*
X22302944Y-79302944D03*
X24000000Y-78600000D03*
X25697056Y-79302944D03*
M02*
