M48
;DRILL file {KiCad 4.0.2-4+6225~38~ubuntu15.04.1-stable} date lun. 25 avril 2016 11:20:10 CEST
;FORMAT={-:-/ absolute / metric / decimal}
FMAT,2
METRIC,TZ
T1C0.300
T2C0.500
T3C0.800
T4C1.001
T5C1.016
T6C1.501
T7C1.524
T8C3.200
%
G90
G05
M71
T1
X26.Y-68.
X26.Y-72.
X27.5Y-39.75
X32.5Y-39.75
X34.25Y-59.5
X35.25Y-58.25
X39.75Y-59.5
X41.Y-58.25
X53.25Y-57.25
X54.25Y-58.
X55.25Y-58.75
X60.Y-31.5
X60.Y-57.25
X60.Y-58.75
X61.Y-58.
X65.Y-31.5
X66.Y-45.5
X68.75Y-72.25
T2
X21.6Y-24.
X21.6Y-81.
X22.303Y-22.303
X22.303Y-25.697
X22.303Y-79.303
X22.303Y-82.697
X24.Y-21.6
X24.Y-26.4
X24.Y-78.6
X24.Y-83.4
X25.697Y-22.303
X25.697Y-25.697
X25.697Y-79.303
X25.697Y-82.697
X26.4Y-24.
X26.4Y-81.
X68.6Y-24.
X68.6Y-81.
X69.303Y-22.303
X69.303Y-25.697
X69.303Y-79.303
X69.303Y-82.697
X71.Y-21.6
X71.Y-26.4
X71.Y-78.6
X71.Y-83.4
X72.697Y-22.303
X72.697Y-25.697
X72.697Y-79.303
X72.697Y-82.697
X73.4Y-24.
X73.4Y-81.
T3
X29.5Y-31.5
X29.5Y-54.
X32.Y-54.
X32.25Y-51.75
X40.5Y-54.
X41.25Y-31.5
X43.Y-54.
X43.25Y-51.75
X51.75Y-51.75
X52.Y-54.
X54.Y-39.
X54.5Y-54.
X62.75Y-51.75
X63.Y-54.
X65.5Y-54.
X68.Y-39.
T4
X23.Y-31.46
X23.Y-34.
X23.Y-36.54
X23.Y-43.46
X23.Y-46.
X23.Y-48.54
X23.Y-55.46
X23.Y-58.
X23.Y-60.54
X23.Y-67.46
X23.Y-70.
X23.Y-72.54
X72.Y-31.46
X72.Y-34.
X72.Y-36.54
X72.Y-43.46
X72.Y-46.
X72.Y-48.54
X72.Y-55.46
X72.Y-58.
X72.Y-60.54
X72.Y-67.46
X72.Y-70.
X72.Y-72.54
T5
X32.38Y-81.
X34.92Y-81.
X37.46Y-81.
X40.Y-81.
X55.Y-81.
X57.54Y-81.
X60.08Y-81.
X62.62Y-81.
T6
X29.759Y-42.003
X29.759Y-62.003
X30.001Y-35.997
X30.001Y-67.997
X44.999Y-42.003
X44.999Y-62.003
X45.241Y-35.997
X45.241Y-67.997
X49.759Y-36.003
X49.759Y-68.003
X50.001Y-41.997
X50.001Y-61.997
X64.999Y-36.003
X64.999Y-68.003
X65.241Y-41.997
X65.241Y-61.997
T7
X32.46Y-24.
X37.54Y-24.
X44.96Y-81.
X50.04Y-81.
X57.46Y-24.
X62.54Y-24.
T8
X24.Y-24.
X24.Y-81.
X71.Y-24.
X71.Y-81.
T0
M30
