G04 #@! TF.FileFunction,Legend,Top*
%FSLAX46Y46*%
G04 Gerber Fmt 4.6, Leading zero omitted, Abs format (unit mm)*
G04 Created by KiCad (PCBNEW 4.0.2-4+6225~38~ubuntu15.04.1-stable) date lun. 25 avril 2016 11:18:35 CEST*
%MOMM*%
G01*
G04 APERTURE LIST*
%ADD10C,0.100000*%
%ADD11C,0.200000*%
%ADD12C,0.187500*%
%ADD13C,0.300000*%
%ADD14C,0.250000*%
%ADD15C,0.150000*%
G04 APERTURE END LIST*
D10*
D11*
X32000000Y-71500000D02*
X31000000Y-72500000D01*
X40500000Y-71500000D02*
X32000000Y-71500000D01*
X63000000Y-71500000D02*
X64000000Y-72500000D01*
X54000000Y-71500000D02*
X63000000Y-71500000D01*
D12*
X55571428Y-83839286D02*
X55571428Y-83089286D01*
X55821428Y-83625000D01*
X56071428Y-83089286D01*
X56071428Y-83839286D01*
X56392857Y-83160714D02*
X56428571Y-83125000D01*
X56500000Y-83089286D01*
X56678571Y-83089286D01*
X56750000Y-83125000D01*
X56785714Y-83160714D01*
X56821429Y-83232143D01*
X56821429Y-83303571D01*
X56785714Y-83410714D01*
X56357143Y-83839286D01*
X56821429Y-83839286D01*
X57107143Y-83625000D02*
X57464286Y-83625000D01*
X57035715Y-83839286D02*
X57285715Y-83089286D01*
X57535715Y-83839286D01*
X60517857Y-83839286D02*
X60517857Y-83089286D01*
X60767857Y-83625000D01*
X61017857Y-83089286D01*
X61017857Y-83839286D01*
X61339286Y-83160714D02*
X61375000Y-83125000D01*
X61446429Y-83089286D01*
X61625000Y-83089286D01*
X61696429Y-83125000D01*
X61732143Y-83160714D01*
X61767858Y-83232143D01*
X61767858Y-83303571D01*
X61732143Y-83410714D01*
X61303572Y-83839286D01*
X61767858Y-83839286D01*
X62339286Y-83446429D02*
X62446429Y-83482143D01*
X62482144Y-83517857D01*
X62517858Y-83589286D01*
X62517858Y-83696429D01*
X62482144Y-83767857D01*
X62446429Y-83803571D01*
X62375001Y-83839286D01*
X62089286Y-83839286D01*
X62089286Y-83089286D01*
X62339286Y-83089286D01*
X62410715Y-83125000D01*
X62446429Y-83160714D01*
X62482144Y-83232143D01*
X62482144Y-83303571D01*
X62446429Y-83375000D01*
X62410715Y-83410714D01*
X62339286Y-83446429D01*
X62089286Y-83446429D01*
X37571428Y-83839286D02*
X37571428Y-83089286D01*
X37821428Y-83625000D01*
X38071428Y-83089286D01*
X38071428Y-83839286D01*
X38821429Y-83839286D02*
X38392857Y-83839286D01*
X38607143Y-83839286D02*
X38607143Y-83089286D01*
X38535714Y-83196429D01*
X38464286Y-83267857D01*
X38392857Y-83303571D01*
X39107143Y-83625000D02*
X39464286Y-83625000D01*
X39035715Y-83839286D02*
X39285715Y-83089286D01*
X39535715Y-83839286D01*
X32517857Y-83839286D02*
X32517857Y-83089286D01*
X32767857Y-83625000D01*
X33017857Y-83089286D01*
X33017857Y-83839286D01*
X33767858Y-83839286D02*
X33339286Y-83839286D01*
X33553572Y-83839286D02*
X33553572Y-83089286D01*
X33482143Y-83196429D01*
X33410715Y-83267857D01*
X33339286Y-83303571D01*
X34339286Y-83446429D02*
X34446429Y-83482143D01*
X34482144Y-83517857D01*
X34517858Y-83589286D01*
X34517858Y-83696429D01*
X34482144Y-83767857D01*
X34446429Y-83803571D01*
X34375001Y-83839286D01*
X34089286Y-83839286D01*
X34089286Y-83089286D01*
X34339286Y-83089286D01*
X34410715Y-83125000D01*
X34446429Y-83160714D01*
X34482144Y-83232143D01*
X34482144Y-83303571D01*
X34446429Y-83375000D01*
X34410715Y-83410714D01*
X34339286Y-83446429D01*
X34089286Y-83446429D01*
X59785714Y-78839286D02*
X59785714Y-78089286D01*
X59785714Y-78446429D02*
X60214286Y-78446429D01*
X60214286Y-78839286D02*
X60214286Y-78089286D01*
X54785714Y-78839286D02*
X54785714Y-78089286D01*
X54785714Y-78446429D02*
X55214286Y-78446429D01*
X55214286Y-78839286D02*
X55214286Y-78089286D01*
X39785714Y-78839286D02*
X39785714Y-78089286D01*
X39785714Y-78446429D02*
X40214286Y-78446429D01*
X40214286Y-78839286D02*
X40214286Y-78089286D01*
X34785714Y-78839286D02*
X34785714Y-78089286D01*
X34785714Y-78446429D02*
X35214286Y-78446429D01*
X35214286Y-78839286D02*
X35214286Y-78089286D01*
X62732143Y-78839286D02*
X62375000Y-78839286D01*
X62375000Y-78089286D01*
X57732143Y-78839286D02*
X57375000Y-78839286D01*
X57375000Y-78089286D01*
X37732143Y-78839286D02*
X37375000Y-78839286D01*
X37375000Y-78089286D01*
X32732143Y-78839286D02*
X32375000Y-78839286D01*
X32375000Y-78089286D01*
D13*
X61035715Y-29678571D02*
X61035715Y-28178571D01*
X61535715Y-29250000D01*
X62035715Y-28178571D01*
X62035715Y-29678571D01*
X62678572Y-28321429D02*
X62750001Y-28250000D01*
X62892858Y-28178571D01*
X63250001Y-28178571D01*
X63392858Y-28250000D01*
X63464287Y-28321429D01*
X63535715Y-28464286D01*
X63535715Y-28607143D01*
X63464287Y-28821429D01*
X62607144Y-29678571D01*
X63535715Y-29678571D01*
X64678572Y-28892857D02*
X64892858Y-28964286D01*
X64964286Y-29035714D01*
X65035715Y-29178571D01*
X65035715Y-29392857D01*
X64964286Y-29535714D01*
X64892858Y-29607143D01*
X64750000Y-29678571D01*
X64178572Y-29678571D01*
X64178572Y-28178571D01*
X64678572Y-28178571D01*
X64821429Y-28250000D01*
X64892858Y-28321429D01*
X64964286Y-28464286D01*
X64964286Y-28607143D01*
X64892858Y-28750000D01*
X64821429Y-28821429D01*
X64678572Y-28892857D01*
X64178572Y-28892857D01*
X55142858Y-29678571D02*
X55142858Y-28178571D01*
X55642858Y-29250000D01*
X56142858Y-28178571D01*
X56142858Y-29678571D01*
X56785715Y-28321429D02*
X56857144Y-28250000D01*
X57000001Y-28178571D01*
X57357144Y-28178571D01*
X57500001Y-28250000D01*
X57571430Y-28321429D01*
X57642858Y-28464286D01*
X57642858Y-28607143D01*
X57571430Y-28821429D01*
X56714287Y-29678571D01*
X57642858Y-29678571D01*
X58214286Y-29250000D02*
X58928572Y-29250000D01*
X58071429Y-29678571D02*
X58571429Y-28178571D01*
X59071429Y-29678571D01*
X36035715Y-29678571D02*
X36035715Y-28178571D01*
X36535715Y-29250000D01*
X37035715Y-28178571D01*
X37035715Y-29678571D01*
X38535715Y-29678571D02*
X37678572Y-29678571D01*
X38107144Y-29678571D02*
X38107144Y-28178571D01*
X37964287Y-28392857D01*
X37821429Y-28535714D01*
X37678572Y-28607143D01*
X39678572Y-28892857D02*
X39892858Y-28964286D01*
X39964286Y-29035714D01*
X40035715Y-29178571D01*
X40035715Y-29392857D01*
X39964286Y-29535714D01*
X39892858Y-29607143D01*
X39750000Y-29678571D01*
X39178572Y-29678571D01*
X39178572Y-28178571D01*
X39678572Y-28178571D01*
X39821429Y-28250000D01*
X39892858Y-28321429D01*
X39964286Y-28464286D01*
X39964286Y-28607143D01*
X39892858Y-28750000D01*
X39821429Y-28821429D01*
X39678572Y-28892857D01*
X39178572Y-28892857D01*
X30142858Y-29678571D02*
X30142858Y-28178571D01*
X30642858Y-29250000D01*
X31142858Y-28178571D01*
X31142858Y-29678571D01*
X32642858Y-29678571D02*
X31785715Y-29678571D01*
X32214287Y-29678571D02*
X32214287Y-28178571D01*
X32071430Y-28392857D01*
X31928572Y-28535714D01*
X31785715Y-28607143D01*
X33214286Y-29250000D02*
X33928572Y-29250000D01*
X33071429Y-29678571D02*
X33571429Y-28178571D01*
X34071429Y-29678571D01*
D14*
X49238096Y-75500000D02*
X49142858Y-75452381D01*
X49000001Y-75452381D01*
X48857143Y-75500000D01*
X48761905Y-75595238D01*
X48714286Y-75690476D01*
X48666667Y-75880952D01*
X48666667Y-76023810D01*
X48714286Y-76214286D01*
X48761905Y-76309524D01*
X48857143Y-76404762D01*
X49000001Y-76452381D01*
X49095239Y-76452381D01*
X49238096Y-76404762D01*
X49285715Y-76357143D01*
X49285715Y-76023810D01*
X49095239Y-76023810D01*
X49714286Y-76452381D02*
X49714286Y-75452381D01*
X50285715Y-76452381D01*
X50285715Y-75452381D01*
X50761905Y-76452381D02*
X50761905Y-75452381D01*
X51000000Y-75452381D01*
X51142858Y-75500000D01*
X51238096Y-75595238D01*
X51285715Y-75690476D01*
X51333334Y-75880952D01*
X51333334Y-76023810D01*
X51285715Y-76214286D01*
X51238096Y-76309524D01*
X51142858Y-76404762D01*
X51000000Y-76452381D01*
X50761905Y-76452381D01*
D13*
X44428572Y-76107143D02*
X45571429Y-76107143D01*
X45000000Y-76678571D02*
X45000000Y-75535714D01*
D15*
X52806780Y-36002960D02*
X51282780Y-36002960D01*
X61950780Y-36002960D02*
X63474780Y-36002960D01*
X60934780Y-38796960D02*
X60934780Y-33208960D01*
X61188780Y-38796960D02*
X61188780Y-33208960D01*
X61442780Y-38796960D02*
X61442780Y-33208960D01*
X61950780Y-33208960D02*
X61950780Y-38796960D01*
X61950780Y-38796960D02*
X52806780Y-38796960D01*
X52806780Y-38796960D02*
X52806780Y-33208960D01*
X52806780Y-33208960D02*
X61950780Y-33208960D01*
X62193220Y-61997040D02*
X63717220Y-61997040D01*
X53049220Y-61997040D02*
X51525220Y-61997040D01*
X54065220Y-59203040D02*
X54065220Y-64791040D01*
X53811220Y-59203040D02*
X53811220Y-64791040D01*
X53557220Y-59203040D02*
X53557220Y-64791040D01*
X53049220Y-64791040D02*
X53049220Y-59203040D01*
X53049220Y-59203040D02*
X62193220Y-59203040D01*
X62193220Y-59203040D02*
X62193220Y-64791040D01*
X62193220Y-64791040D02*
X53049220Y-64791040D01*
X42193220Y-67997040D02*
X43717220Y-67997040D01*
X33049220Y-67997040D02*
X31525220Y-67997040D01*
X34065220Y-65203040D02*
X34065220Y-70791040D01*
X33811220Y-65203040D02*
X33811220Y-70791040D01*
X33557220Y-65203040D02*
X33557220Y-70791040D01*
X33049220Y-70791040D02*
X33049220Y-65203040D01*
X33049220Y-65203040D02*
X42193220Y-65203040D01*
X42193220Y-65203040D02*
X42193220Y-70791040D01*
X42193220Y-70791040D02*
X33049220Y-70791040D01*
X30675000Y-57149000D02*
X30675000Y-50851000D01*
X30535000Y-57143000D02*
X30535000Y-50857000D01*
X30395000Y-57130000D02*
X30395000Y-54446000D01*
X30395000Y-53554000D02*
X30395000Y-50870000D01*
X30255000Y-57111000D02*
X30255000Y-54656000D01*
X30255000Y-53344000D02*
X30255000Y-50889000D01*
X30115000Y-57085000D02*
X30115000Y-54789000D01*
X30115000Y-53211000D02*
X30115000Y-50915000D01*
X29975000Y-57053000D02*
X29975000Y-54880000D01*
X29975000Y-53120000D02*
X29975000Y-50947000D01*
X29835000Y-57014000D02*
X29835000Y-54942000D01*
X29835000Y-53058000D02*
X29835000Y-50986000D01*
X29695000Y-56968000D02*
X29695000Y-54981000D01*
X29695000Y-53019000D02*
X29695000Y-51032000D01*
X29555000Y-56915000D02*
X29555000Y-54998000D01*
X29555000Y-53002000D02*
X29555000Y-51085000D01*
X29415000Y-56853000D02*
X29415000Y-54996000D01*
X29415000Y-53004000D02*
X29415000Y-51147000D01*
X29275000Y-56783000D02*
X29275000Y-54974000D01*
X29275000Y-53026000D02*
X29275000Y-51217000D01*
X29135000Y-56704000D02*
X29135000Y-54931000D01*
X29135000Y-53069000D02*
X29135000Y-51296000D01*
X28995000Y-56616000D02*
X28995000Y-54863000D01*
X28995000Y-53137000D02*
X28995000Y-51384000D01*
X28855000Y-56516000D02*
X28855000Y-54764000D01*
X28855000Y-53236000D02*
X28855000Y-51484000D01*
X28715000Y-56404000D02*
X28715000Y-54619000D01*
X28715000Y-53381000D02*
X28715000Y-51596000D01*
X28575000Y-56279000D02*
X28575000Y-54380000D01*
X28575000Y-53620000D02*
X28575000Y-51721000D01*
X28435000Y-56136000D02*
X28435000Y-51864000D01*
X28295000Y-55974000D02*
X28295000Y-52026000D01*
X28155000Y-55786000D02*
X28155000Y-52214000D01*
X28015000Y-55563000D02*
X28015000Y-52437000D01*
X27875000Y-55287000D02*
X27875000Y-52713000D01*
X27735000Y-54912000D02*
X27735000Y-53088000D01*
X30500000Y-54000000D02*
G75*
G03X30500000Y-54000000I-1000000J0D01*
G01*
X33937500Y-54000000D02*
G75*
G03X33937500Y-54000000I-3187500J0D01*
G01*
X41675000Y-57149000D02*
X41675000Y-50851000D01*
X41535000Y-57143000D02*
X41535000Y-50857000D01*
X41395000Y-57130000D02*
X41395000Y-54446000D01*
X41395000Y-53554000D02*
X41395000Y-50870000D01*
X41255000Y-57111000D02*
X41255000Y-54656000D01*
X41255000Y-53344000D02*
X41255000Y-50889000D01*
X41115000Y-57085000D02*
X41115000Y-54789000D01*
X41115000Y-53211000D02*
X41115000Y-50915000D01*
X40975000Y-57053000D02*
X40975000Y-54880000D01*
X40975000Y-53120000D02*
X40975000Y-50947000D01*
X40835000Y-57014000D02*
X40835000Y-54942000D01*
X40835000Y-53058000D02*
X40835000Y-50986000D01*
X40695000Y-56968000D02*
X40695000Y-54981000D01*
X40695000Y-53019000D02*
X40695000Y-51032000D01*
X40555000Y-56915000D02*
X40555000Y-54998000D01*
X40555000Y-53002000D02*
X40555000Y-51085000D01*
X40415000Y-56853000D02*
X40415000Y-54996000D01*
X40415000Y-53004000D02*
X40415000Y-51147000D01*
X40275000Y-56783000D02*
X40275000Y-54974000D01*
X40275000Y-53026000D02*
X40275000Y-51217000D01*
X40135000Y-56704000D02*
X40135000Y-54931000D01*
X40135000Y-53069000D02*
X40135000Y-51296000D01*
X39995000Y-56616000D02*
X39995000Y-54863000D01*
X39995000Y-53137000D02*
X39995000Y-51384000D01*
X39855000Y-56516000D02*
X39855000Y-54764000D01*
X39855000Y-53236000D02*
X39855000Y-51484000D01*
X39715000Y-56404000D02*
X39715000Y-54619000D01*
X39715000Y-53381000D02*
X39715000Y-51596000D01*
X39575000Y-56279000D02*
X39575000Y-54380000D01*
X39575000Y-53620000D02*
X39575000Y-51721000D01*
X39435000Y-56136000D02*
X39435000Y-51864000D01*
X39295000Y-55974000D02*
X39295000Y-52026000D01*
X39155000Y-55786000D02*
X39155000Y-52214000D01*
X39015000Y-55563000D02*
X39015000Y-52437000D01*
X38875000Y-55287000D02*
X38875000Y-52713000D01*
X38735000Y-54912000D02*
X38735000Y-53088000D01*
X41500000Y-54000000D02*
G75*
G03X41500000Y-54000000I-1000000J0D01*
G01*
X44937500Y-54000000D02*
G75*
G03X44937500Y-54000000I-3187500J0D01*
G01*
X30500000Y-48850000D02*
X31500000Y-48850000D01*
X31500000Y-47150000D02*
X30500000Y-47150000D01*
X41500000Y-48850000D02*
X42500000Y-48850000D01*
X42500000Y-47150000D02*
X41500000Y-47150000D01*
X53325000Y-50851000D02*
X53325000Y-57149000D01*
X53465000Y-50857000D02*
X53465000Y-57143000D01*
X53605000Y-50870000D02*
X53605000Y-53554000D01*
X53605000Y-54446000D02*
X53605000Y-57130000D01*
X53745000Y-50889000D02*
X53745000Y-53344000D01*
X53745000Y-54656000D02*
X53745000Y-57111000D01*
X53885000Y-50915000D02*
X53885000Y-53211000D01*
X53885000Y-54789000D02*
X53885000Y-57085000D01*
X54025000Y-50947000D02*
X54025000Y-53120000D01*
X54025000Y-54880000D02*
X54025000Y-57053000D01*
X54165000Y-50986000D02*
X54165000Y-53058000D01*
X54165000Y-54942000D02*
X54165000Y-57014000D01*
X54305000Y-51032000D02*
X54305000Y-53019000D01*
X54305000Y-54981000D02*
X54305000Y-56968000D01*
X54445000Y-51085000D02*
X54445000Y-53002000D01*
X54445000Y-54998000D02*
X54445000Y-56915000D01*
X54585000Y-51147000D02*
X54585000Y-53004000D01*
X54585000Y-54996000D02*
X54585000Y-56853000D01*
X54725000Y-51217000D02*
X54725000Y-53026000D01*
X54725000Y-54974000D02*
X54725000Y-56783000D01*
X54865000Y-51296000D02*
X54865000Y-53069000D01*
X54865000Y-54931000D02*
X54865000Y-56704000D01*
X55005000Y-51384000D02*
X55005000Y-53137000D01*
X55005000Y-54863000D02*
X55005000Y-56616000D01*
X55145000Y-51484000D02*
X55145000Y-53236000D01*
X55145000Y-54764000D02*
X55145000Y-56516000D01*
X55285000Y-51596000D02*
X55285000Y-53381000D01*
X55285000Y-54619000D02*
X55285000Y-56404000D01*
X55425000Y-51721000D02*
X55425000Y-53620000D01*
X55425000Y-54380000D02*
X55425000Y-56279000D01*
X55565000Y-51864000D02*
X55565000Y-56136000D01*
X55705000Y-52026000D02*
X55705000Y-55974000D01*
X55845000Y-52214000D02*
X55845000Y-55786000D01*
X55985000Y-52437000D02*
X55985000Y-55563000D01*
X56125000Y-52713000D02*
X56125000Y-55287000D01*
X56265000Y-53088000D02*
X56265000Y-54912000D01*
X55500000Y-54000000D02*
G75*
G03X55500000Y-54000000I-1000000J0D01*
G01*
X56437500Y-54000000D02*
G75*
G03X56437500Y-54000000I-3187500J0D01*
G01*
X64325000Y-50851000D02*
X64325000Y-57149000D01*
X64465000Y-50857000D02*
X64465000Y-57143000D01*
X64605000Y-50870000D02*
X64605000Y-53554000D01*
X64605000Y-54446000D02*
X64605000Y-57130000D01*
X64745000Y-50889000D02*
X64745000Y-53344000D01*
X64745000Y-54656000D02*
X64745000Y-57111000D01*
X64885000Y-50915000D02*
X64885000Y-53211000D01*
X64885000Y-54789000D02*
X64885000Y-57085000D01*
X65025000Y-50947000D02*
X65025000Y-53120000D01*
X65025000Y-54880000D02*
X65025000Y-57053000D01*
X65165000Y-50986000D02*
X65165000Y-53058000D01*
X65165000Y-54942000D02*
X65165000Y-57014000D01*
X65305000Y-51032000D02*
X65305000Y-53019000D01*
X65305000Y-54981000D02*
X65305000Y-56968000D01*
X65445000Y-51085000D02*
X65445000Y-53002000D01*
X65445000Y-54998000D02*
X65445000Y-56915000D01*
X65585000Y-51147000D02*
X65585000Y-53004000D01*
X65585000Y-54996000D02*
X65585000Y-56853000D01*
X65725000Y-51217000D02*
X65725000Y-53026000D01*
X65725000Y-54974000D02*
X65725000Y-56783000D01*
X65865000Y-51296000D02*
X65865000Y-53069000D01*
X65865000Y-54931000D02*
X65865000Y-56704000D01*
X66005000Y-51384000D02*
X66005000Y-53137000D01*
X66005000Y-54863000D02*
X66005000Y-56616000D01*
X66145000Y-51484000D02*
X66145000Y-53236000D01*
X66145000Y-54764000D02*
X66145000Y-56516000D01*
X66285000Y-51596000D02*
X66285000Y-53381000D01*
X66285000Y-54619000D02*
X66285000Y-56404000D01*
X66425000Y-51721000D02*
X66425000Y-53620000D01*
X66425000Y-54380000D02*
X66425000Y-56279000D01*
X66565000Y-51864000D02*
X66565000Y-56136000D01*
X66705000Y-52026000D02*
X66705000Y-55974000D01*
X66845000Y-52214000D02*
X66845000Y-55786000D01*
X66985000Y-52437000D02*
X66985000Y-55563000D01*
X67125000Y-52713000D02*
X67125000Y-55287000D01*
X67265000Y-53088000D02*
X67265000Y-54912000D01*
X66500000Y-54000000D02*
G75*
G03X66500000Y-54000000I-1000000J0D01*
G01*
X67437500Y-54000000D02*
G75*
G03X67437500Y-54000000I-3187500J0D01*
G01*
X53500000Y-47150000D02*
X52500000Y-47150000D01*
X52500000Y-48850000D02*
X53500000Y-48850000D01*
X64500000Y-47150000D02*
X63500000Y-47150000D01*
X63500000Y-48850000D02*
X64500000Y-48850000D01*
X50750000Y-25600000D02*
X50750000Y-22900000D01*
X49250000Y-25600000D02*
X49250000Y-22900000D01*
X50150000Y-24100000D02*
X49900000Y-24100000D01*
X49900000Y-24100000D02*
X50050000Y-24250000D01*
X49650000Y-24350000D02*
X50350000Y-24350000D01*
X50000000Y-24000000D02*
X50000000Y-23650000D01*
X50000000Y-24350000D02*
X49650000Y-24000000D01*
X49650000Y-24000000D02*
X50350000Y-24000000D01*
X50350000Y-24000000D02*
X50000000Y-24350000D01*
X32806780Y-42002960D02*
X31282780Y-42002960D01*
X41950780Y-42002960D02*
X43474780Y-42002960D01*
X40934780Y-44796960D02*
X40934780Y-39208960D01*
X41188780Y-44796960D02*
X41188780Y-39208960D01*
X41442780Y-44796960D02*
X41442780Y-39208960D01*
X41950780Y-39208960D02*
X41950780Y-44796960D01*
X41950780Y-44796960D02*
X32806780Y-44796960D01*
X32806780Y-44796960D02*
X32806780Y-39208960D01*
X32806780Y-39208960D02*
X41950780Y-39208960D01*
X42193220Y-35997040D02*
X43717220Y-35997040D01*
X33049220Y-35997040D02*
X31525220Y-35997040D01*
X34065220Y-33203040D02*
X34065220Y-38791040D01*
X33811220Y-33203040D02*
X33811220Y-38791040D01*
X33557220Y-33203040D02*
X33557220Y-38791040D01*
X33049220Y-38791040D02*
X33049220Y-33203040D01*
X33049220Y-33203040D02*
X42193220Y-33203040D01*
X42193220Y-33203040D02*
X42193220Y-38791040D01*
X42193220Y-38791040D02*
X33049220Y-38791040D01*
X32806780Y-62002960D02*
X31282780Y-62002960D01*
X41950780Y-62002960D02*
X43474780Y-62002960D01*
X40934780Y-64796960D02*
X40934780Y-59208960D01*
X41188780Y-64796960D02*
X41188780Y-59208960D01*
X41442780Y-64796960D02*
X41442780Y-59208960D01*
X41950780Y-59208960D02*
X41950780Y-64796960D01*
X41950780Y-64796960D02*
X32806780Y-64796960D01*
X32806780Y-64796960D02*
X32806780Y-59208960D01*
X32806780Y-59208960D02*
X41950780Y-59208960D01*
X62193220Y-41997040D02*
X63717220Y-41997040D01*
X53049220Y-41997040D02*
X51525220Y-41997040D01*
X54065220Y-39203040D02*
X54065220Y-44791040D01*
X53811220Y-39203040D02*
X53811220Y-44791040D01*
X53557220Y-39203040D02*
X53557220Y-44791040D01*
X53049220Y-44791040D02*
X53049220Y-39203040D01*
X53049220Y-39203040D02*
X62193220Y-39203040D01*
X62193220Y-39203040D02*
X62193220Y-44791040D01*
X62193220Y-44791040D02*
X53049220Y-44791040D01*
X52806780Y-68002960D02*
X51282780Y-68002960D01*
X61950780Y-68002960D02*
X63474780Y-68002960D01*
X60934780Y-70796960D02*
X60934780Y-65208960D01*
X61188780Y-70796960D02*
X61188780Y-65208960D01*
X61442780Y-70796960D02*
X61442780Y-65208960D01*
X61950780Y-65208960D02*
X61950780Y-70796960D01*
X61950780Y-70796960D02*
X52806780Y-70796960D01*
X52806780Y-70796960D02*
X52806780Y-65208960D01*
X52806780Y-65208960D02*
X61950780Y-65208960D01*
X52580000Y-83540000D02*
X42420000Y-83540000D01*
X52580000Y-84810000D02*
X52580000Y-77190000D01*
X52580000Y-77190000D02*
X42420000Y-77190000D01*
X42420000Y-77190000D02*
X42420000Y-84810000D01*
X42420000Y-84810000D02*
X52580000Y-84810000D01*
X38730000Y-79730000D02*
X31110000Y-79730000D01*
X38730000Y-82270000D02*
X31110000Y-82270000D01*
X41550000Y-82550000D02*
X40000000Y-82550000D01*
X31110000Y-79730000D02*
X31110000Y-82270000D01*
X38730000Y-82270000D02*
X38730000Y-79730000D01*
X40000000Y-79450000D02*
X41550000Y-79450000D01*
X41550000Y-79450000D02*
X41550000Y-82550000D01*
X29920000Y-21460000D02*
X40080000Y-21460000D01*
X29920000Y-20190000D02*
X29920000Y-27810000D01*
X29920000Y-27810000D02*
X40080000Y-27810000D01*
X40080000Y-27810000D02*
X40080000Y-20190000D01*
X40080000Y-20190000D02*
X29920000Y-20190000D01*
X56270000Y-82270000D02*
X63890000Y-82270000D01*
X56270000Y-79730000D02*
X63890000Y-79730000D01*
X53450000Y-79450000D02*
X55000000Y-79450000D01*
X63890000Y-82270000D02*
X63890000Y-79730000D01*
X56270000Y-79730000D02*
X56270000Y-82270000D01*
X55000000Y-82550000D02*
X53450000Y-82550000D01*
X53450000Y-82550000D02*
X53450000Y-79450000D01*
X54920000Y-21460000D02*
X65080000Y-21460000D01*
X54920000Y-20190000D02*
X54920000Y-27810000D01*
X54920000Y-27810000D02*
X65080000Y-27810000D01*
X65080000Y-27810000D02*
X65080000Y-20190000D01*
X65080000Y-20190000D02*
X54920000Y-20190000D01*
X21095000Y-28666000D02*
X21095000Y-30571000D01*
X21095000Y-33111000D02*
X21095000Y-32349000D01*
X21095000Y-35524000D02*
X21095000Y-35651000D01*
X21095000Y-35524000D02*
X21095000Y-34889000D01*
X21095000Y-39334000D02*
X21095000Y-37556000D01*
X24778000Y-39334000D02*
X24778000Y-37683000D01*
X24905000Y-35016000D02*
X24905000Y-35651000D01*
X24905000Y-32476000D02*
X24905000Y-33111000D01*
X24778000Y-28666000D02*
X24778000Y-30317000D01*
X19952000Y-35524000D02*
X21095000Y-35524000D01*
X19952000Y-32476000D02*
X21095000Y-32476000D01*
X21095000Y-28666000D02*
X24778000Y-28666000D01*
X24778000Y-39334000D02*
X21095000Y-39334000D01*
X19952000Y-28666000D02*
X21095000Y-28666000D01*
X21095000Y-39334000D02*
X19952000Y-39334000D01*
X19952000Y-34000000D02*
X19952000Y-39334000D01*
X19952000Y-34000000D02*
X19952000Y-28666000D01*
X21095000Y-40666000D02*
X21095000Y-42571000D01*
X21095000Y-45111000D02*
X21095000Y-44349000D01*
X21095000Y-47524000D02*
X21095000Y-47651000D01*
X21095000Y-47524000D02*
X21095000Y-46889000D01*
X21095000Y-51334000D02*
X21095000Y-49556000D01*
X24778000Y-51334000D02*
X24778000Y-49683000D01*
X24905000Y-47016000D02*
X24905000Y-47651000D01*
X24905000Y-44476000D02*
X24905000Y-45111000D01*
X24778000Y-40666000D02*
X24778000Y-42317000D01*
X19952000Y-47524000D02*
X21095000Y-47524000D01*
X19952000Y-44476000D02*
X21095000Y-44476000D01*
X21095000Y-40666000D02*
X24778000Y-40666000D01*
X24778000Y-51334000D02*
X21095000Y-51334000D01*
X19952000Y-40666000D02*
X21095000Y-40666000D01*
X21095000Y-51334000D02*
X19952000Y-51334000D01*
X19952000Y-46000000D02*
X19952000Y-51334000D01*
X19952000Y-46000000D02*
X19952000Y-40666000D01*
X21095000Y-52666000D02*
X21095000Y-54571000D01*
X21095000Y-57111000D02*
X21095000Y-56349000D01*
X21095000Y-59524000D02*
X21095000Y-59651000D01*
X21095000Y-59524000D02*
X21095000Y-58889000D01*
X21095000Y-63334000D02*
X21095000Y-61556000D01*
X24778000Y-63334000D02*
X24778000Y-61683000D01*
X24905000Y-59016000D02*
X24905000Y-59651000D01*
X24905000Y-56476000D02*
X24905000Y-57111000D01*
X24778000Y-52666000D02*
X24778000Y-54317000D01*
X19952000Y-59524000D02*
X21095000Y-59524000D01*
X19952000Y-56476000D02*
X21095000Y-56476000D01*
X21095000Y-52666000D02*
X24778000Y-52666000D01*
X24778000Y-63334000D02*
X21095000Y-63334000D01*
X19952000Y-52666000D02*
X21095000Y-52666000D01*
X21095000Y-63334000D02*
X19952000Y-63334000D01*
X19952000Y-58000000D02*
X19952000Y-63334000D01*
X19952000Y-58000000D02*
X19952000Y-52666000D01*
X21095000Y-64666000D02*
X21095000Y-66571000D01*
X21095000Y-69111000D02*
X21095000Y-68349000D01*
X21095000Y-71524000D02*
X21095000Y-71651000D01*
X21095000Y-71524000D02*
X21095000Y-70889000D01*
X21095000Y-75334000D02*
X21095000Y-73556000D01*
X24778000Y-75334000D02*
X24778000Y-73683000D01*
X24905000Y-71016000D02*
X24905000Y-71651000D01*
X24905000Y-68476000D02*
X24905000Y-69111000D01*
X24778000Y-64666000D02*
X24778000Y-66317000D01*
X19952000Y-71524000D02*
X21095000Y-71524000D01*
X19952000Y-68476000D02*
X21095000Y-68476000D01*
X21095000Y-64666000D02*
X24778000Y-64666000D01*
X24778000Y-75334000D02*
X21095000Y-75334000D01*
X19952000Y-64666000D02*
X21095000Y-64666000D01*
X21095000Y-75334000D02*
X19952000Y-75334000D01*
X19952000Y-70000000D02*
X19952000Y-75334000D01*
X19952000Y-70000000D02*
X19952000Y-64666000D01*
X73905000Y-39334000D02*
X73905000Y-37429000D01*
X73905000Y-34889000D02*
X73905000Y-35651000D01*
X73905000Y-32476000D02*
X73905000Y-32349000D01*
X73905000Y-32476000D02*
X73905000Y-33111000D01*
X73905000Y-28666000D02*
X73905000Y-30444000D01*
X70222000Y-28666000D02*
X70222000Y-30317000D01*
X70095000Y-32984000D02*
X70095000Y-32349000D01*
X70095000Y-35524000D02*
X70095000Y-34889000D01*
X70222000Y-39334000D02*
X70222000Y-37683000D01*
X75048000Y-32476000D02*
X73905000Y-32476000D01*
X75048000Y-35524000D02*
X73905000Y-35524000D01*
X73905000Y-39334000D02*
X70222000Y-39334000D01*
X70222000Y-28666000D02*
X73905000Y-28666000D01*
X75048000Y-39334000D02*
X73905000Y-39334000D01*
X73905000Y-28666000D02*
X75048000Y-28666000D01*
X75048000Y-34000000D02*
X75048000Y-28666000D01*
X75048000Y-34000000D02*
X75048000Y-39334000D01*
X73905000Y-51334000D02*
X73905000Y-49429000D01*
X73905000Y-46889000D02*
X73905000Y-47651000D01*
X73905000Y-44476000D02*
X73905000Y-44349000D01*
X73905000Y-44476000D02*
X73905000Y-45111000D01*
X73905000Y-40666000D02*
X73905000Y-42444000D01*
X70222000Y-40666000D02*
X70222000Y-42317000D01*
X70095000Y-44984000D02*
X70095000Y-44349000D01*
X70095000Y-47524000D02*
X70095000Y-46889000D01*
X70222000Y-51334000D02*
X70222000Y-49683000D01*
X75048000Y-44476000D02*
X73905000Y-44476000D01*
X75048000Y-47524000D02*
X73905000Y-47524000D01*
X73905000Y-51334000D02*
X70222000Y-51334000D01*
X70222000Y-40666000D02*
X73905000Y-40666000D01*
X75048000Y-51334000D02*
X73905000Y-51334000D01*
X73905000Y-40666000D02*
X75048000Y-40666000D01*
X75048000Y-46000000D02*
X75048000Y-40666000D01*
X75048000Y-46000000D02*
X75048000Y-51334000D01*
X73905000Y-63334000D02*
X73905000Y-61429000D01*
X73905000Y-58889000D02*
X73905000Y-59651000D01*
X73905000Y-56476000D02*
X73905000Y-56349000D01*
X73905000Y-56476000D02*
X73905000Y-57111000D01*
X73905000Y-52666000D02*
X73905000Y-54444000D01*
X70222000Y-52666000D02*
X70222000Y-54317000D01*
X70095000Y-56984000D02*
X70095000Y-56349000D01*
X70095000Y-59524000D02*
X70095000Y-58889000D01*
X70222000Y-63334000D02*
X70222000Y-61683000D01*
X75048000Y-56476000D02*
X73905000Y-56476000D01*
X75048000Y-59524000D02*
X73905000Y-59524000D01*
X73905000Y-63334000D02*
X70222000Y-63334000D01*
X70222000Y-52666000D02*
X73905000Y-52666000D01*
X75048000Y-63334000D02*
X73905000Y-63334000D01*
X73905000Y-52666000D02*
X75048000Y-52666000D01*
X75048000Y-58000000D02*
X75048000Y-52666000D01*
X75048000Y-58000000D02*
X75048000Y-63334000D01*
X73905000Y-75334000D02*
X73905000Y-73429000D01*
X73905000Y-70889000D02*
X73905000Y-71651000D01*
X73905000Y-68476000D02*
X73905000Y-68349000D01*
X73905000Y-68476000D02*
X73905000Y-69111000D01*
X73905000Y-64666000D02*
X73905000Y-66444000D01*
X70222000Y-64666000D02*
X70222000Y-66317000D01*
X70095000Y-68984000D02*
X70095000Y-68349000D01*
X70095000Y-71524000D02*
X70095000Y-70889000D01*
X70222000Y-75334000D02*
X70222000Y-73683000D01*
X75048000Y-68476000D02*
X73905000Y-68476000D01*
X75048000Y-71524000D02*
X73905000Y-71524000D01*
X73905000Y-75334000D02*
X70222000Y-75334000D01*
X70222000Y-64666000D02*
X73905000Y-64666000D01*
X75048000Y-75334000D02*
X73905000Y-75334000D01*
X73905000Y-64666000D02*
X75048000Y-64666000D01*
X75048000Y-70000000D02*
X75048000Y-64666000D01*
X75048000Y-70000000D02*
X75048000Y-75334000D01*
X44875000Y-23400000D02*
X44875000Y-24600000D01*
X43125000Y-24600000D02*
X43125000Y-23400000D01*
X39125000Y-75600000D02*
X39125000Y-74400000D01*
X40875000Y-74400000D02*
X40875000Y-75600000D01*
X36125000Y-75600000D02*
X36125000Y-74400000D01*
X37875000Y-74400000D02*
X37875000Y-75600000D01*
X34875000Y-74400000D02*
X34875000Y-75600000D01*
X33125000Y-75600000D02*
X33125000Y-74400000D01*
X31875000Y-74400000D02*
X31875000Y-75600000D01*
X30125000Y-75600000D02*
X30125000Y-74400000D01*
X54125000Y-75600000D02*
X54125000Y-74400000D01*
X55875000Y-74400000D02*
X55875000Y-75600000D01*
X57125000Y-75600000D02*
X57125000Y-74400000D01*
X58875000Y-74400000D02*
X58875000Y-75600000D01*
X61875000Y-74400000D02*
X61875000Y-75600000D01*
X60125000Y-75600000D02*
X60125000Y-74400000D01*
X64875000Y-74400000D02*
X64875000Y-75600000D01*
X63125000Y-75600000D02*
X63125000Y-74400000D01*
X55309524Y-36452381D02*
X55309524Y-35452381D01*
X55547619Y-35452381D01*
X55690477Y-35500000D01*
X55785715Y-35595238D01*
X55833334Y-35690476D01*
X55880953Y-35880952D01*
X55880953Y-36023810D01*
X55833334Y-36214286D01*
X55785715Y-36309524D01*
X55690477Y-36404762D01*
X55547619Y-36452381D01*
X55309524Y-36452381D01*
X56261905Y-35547619D02*
X56309524Y-35500000D01*
X56404762Y-35452381D01*
X56642858Y-35452381D01*
X56738096Y-35500000D01*
X56785715Y-35547619D01*
X56833334Y-35642857D01*
X56833334Y-35738095D01*
X56785715Y-35880952D01*
X56214286Y-36452381D01*
X56833334Y-36452381D01*
X57452381Y-35452381D02*
X57547620Y-35452381D01*
X57642858Y-35500000D01*
X57690477Y-35547619D01*
X57738096Y-35642857D01*
X57785715Y-35833333D01*
X57785715Y-36071429D01*
X57738096Y-36261905D01*
X57690477Y-36357143D01*
X57642858Y-36404762D01*
X57547620Y-36452381D01*
X57452381Y-36452381D01*
X57357143Y-36404762D01*
X57309524Y-36357143D01*
X57261905Y-36261905D01*
X57214286Y-36071429D01*
X57214286Y-35833333D01*
X57261905Y-35642857D01*
X57309524Y-35547619D01*
X57357143Y-35500000D01*
X57452381Y-35452381D01*
X58166667Y-35547619D02*
X58214286Y-35500000D01*
X58309524Y-35452381D01*
X58547620Y-35452381D01*
X58642858Y-35500000D01*
X58690477Y-35547619D01*
X58738096Y-35642857D01*
X58738096Y-35738095D01*
X58690477Y-35880952D01*
X58119048Y-36452381D01*
X58738096Y-36452381D01*
X56309524Y-62452381D02*
X56309524Y-61452381D01*
X56547619Y-61452381D01*
X56690477Y-61500000D01*
X56785715Y-61595238D01*
X56833334Y-61690476D01*
X56880953Y-61880952D01*
X56880953Y-62023810D01*
X56833334Y-62214286D01*
X56785715Y-62309524D01*
X56690477Y-62404762D01*
X56547619Y-62452381D01*
X56309524Y-62452381D01*
X57261905Y-61547619D02*
X57309524Y-61500000D01*
X57404762Y-61452381D01*
X57642858Y-61452381D01*
X57738096Y-61500000D01*
X57785715Y-61547619D01*
X57833334Y-61642857D01*
X57833334Y-61738095D01*
X57785715Y-61880952D01*
X57214286Y-62452381D01*
X57833334Y-62452381D01*
X58452381Y-61452381D02*
X58547620Y-61452381D01*
X58642858Y-61500000D01*
X58690477Y-61547619D01*
X58738096Y-61642857D01*
X58785715Y-61833333D01*
X58785715Y-62071429D01*
X58738096Y-62261905D01*
X58690477Y-62357143D01*
X58642858Y-62404762D01*
X58547620Y-62452381D01*
X58452381Y-62452381D01*
X58357143Y-62404762D01*
X58309524Y-62357143D01*
X58261905Y-62261905D01*
X58214286Y-62071429D01*
X58214286Y-61833333D01*
X58261905Y-61642857D01*
X58309524Y-61547619D01*
X58357143Y-61500000D01*
X58452381Y-61452381D01*
X59119048Y-61452381D02*
X59738096Y-61452381D01*
X59404762Y-61833333D01*
X59547620Y-61833333D01*
X59642858Y-61880952D01*
X59690477Y-61928571D01*
X59738096Y-62023810D01*
X59738096Y-62261905D01*
X59690477Y-62357143D01*
X59642858Y-62404762D01*
X59547620Y-62452381D01*
X59261905Y-62452381D01*
X59166667Y-62404762D01*
X59119048Y-62357143D01*
X36309524Y-68452381D02*
X36309524Y-67452381D01*
X36547619Y-67452381D01*
X36690477Y-67500000D01*
X36785715Y-67595238D01*
X36833334Y-67690476D01*
X36880953Y-67880952D01*
X36880953Y-68023810D01*
X36833334Y-68214286D01*
X36785715Y-68309524D01*
X36690477Y-68404762D01*
X36547619Y-68452381D01*
X36309524Y-68452381D01*
X37833334Y-68452381D02*
X37261905Y-68452381D01*
X37547619Y-68452381D02*
X37547619Y-67452381D01*
X37452381Y-67595238D01*
X37357143Y-67690476D01*
X37261905Y-67738095D01*
X38452381Y-67452381D02*
X38547620Y-67452381D01*
X38642858Y-67500000D01*
X38690477Y-67547619D01*
X38738096Y-67642857D01*
X38785715Y-67833333D01*
X38785715Y-68071429D01*
X38738096Y-68261905D01*
X38690477Y-68357143D01*
X38642858Y-68404762D01*
X38547620Y-68452381D01*
X38452381Y-68452381D01*
X38357143Y-68404762D01*
X38309524Y-68357143D01*
X38261905Y-68261905D01*
X38214286Y-68071429D01*
X38214286Y-67833333D01*
X38261905Y-67642857D01*
X38309524Y-67547619D01*
X38357143Y-67500000D01*
X38452381Y-67452381D01*
X39642858Y-67785714D02*
X39642858Y-68452381D01*
X39404762Y-67404762D02*
X39166667Y-68119048D01*
X39785715Y-68119048D01*
X29880953Y-50357143D02*
X29833334Y-50404762D01*
X29690477Y-50452381D01*
X29595239Y-50452381D01*
X29452381Y-50404762D01*
X29357143Y-50309524D01*
X29309524Y-50214286D01*
X29261905Y-50023810D01*
X29261905Y-49880952D01*
X29309524Y-49690476D01*
X29357143Y-49595238D01*
X29452381Y-49500000D01*
X29595239Y-49452381D01*
X29690477Y-49452381D01*
X29833334Y-49500000D01*
X29880953Y-49547619D01*
X30833334Y-50452381D02*
X30261905Y-50452381D01*
X30547619Y-50452381D02*
X30547619Y-49452381D01*
X30452381Y-49595238D01*
X30357143Y-49690476D01*
X30261905Y-49738095D01*
X31452381Y-49452381D02*
X31547620Y-49452381D01*
X31642858Y-49500000D01*
X31690477Y-49547619D01*
X31738096Y-49642857D01*
X31785715Y-49833333D01*
X31785715Y-50071429D01*
X31738096Y-50261905D01*
X31690477Y-50357143D01*
X31642858Y-50404762D01*
X31547620Y-50452381D01*
X31452381Y-50452381D01*
X31357143Y-50404762D01*
X31309524Y-50357143D01*
X31261905Y-50261905D01*
X31214286Y-50071429D01*
X31214286Y-49833333D01*
X31261905Y-49642857D01*
X31309524Y-49547619D01*
X31357143Y-49500000D01*
X31452381Y-49452381D01*
X32738096Y-50452381D02*
X32166667Y-50452381D01*
X32452381Y-50452381D02*
X32452381Y-49452381D01*
X32357143Y-49595238D01*
X32261905Y-49690476D01*
X32166667Y-49738095D01*
X40880953Y-50357143D02*
X40833334Y-50404762D01*
X40690477Y-50452381D01*
X40595239Y-50452381D01*
X40452381Y-50404762D01*
X40357143Y-50309524D01*
X40309524Y-50214286D01*
X40261905Y-50023810D01*
X40261905Y-49880952D01*
X40309524Y-49690476D01*
X40357143Y-49595238D01*
X40452381Y-49500000D01*
X40595239Y-49452381D01*
X40690477Y-49452381D01*
X40833334Y-49500000D01*
X40880953Y-49547619D01*
X41833334Y-50452381D02*
X41261905Y-50452381D01*
X41547619Y-50452381D02*
X41547619Y-49452381D01*
X41452381Y-49595238D01*
X41357143Y-49690476D01*
X41261905Y-49738095D01*
X42452381Y-49452381D02*
X42547620Y-49452381D01*
X42642858Y-49500000D01*
X42690477Y-49547619D01*
X42738096Y-49642857D01*
X42785715Y-49833333D01*
X42785715Y-50071429D01*
X42738096Y-50261905D01*
X42690477Y-50357143D01*
X42642858Y-50404762D01*
X42547620Y-50452381D01*
X42452381Y-50452381D01*
X42357143Y-50404762D01*
X42309524Y-50357143D01*
X42261905Y-50261905D01*
X42214286Y-50071429D01*
X42214286Y-49833333D01*
X42261905Y-49642857D01*
X42309524Y-49547619D01*
X42357143Y-49500000D01*
X42452381Y-49452381D01*
X43166667Y-49547619D02*
X43214286Y-49500000D01*
X43309524Y-49452381D01*
X43547620Y-49452381D01*
X43642858Y-49500000D01*
X43690477Y-49547619D01*
X43738096Y-49642857D01*
X43738096Y-49738095D01*
X43690477Y-49880952D01*
X43119048Y-50452381D01*
X43738096Y-50452381D01*
X29380953Y-46357143D02*
X29333334Y-46404762D01*
X29190477Y-46452381D01*
X29095239Y-46452381D01*
X28952381Y-46404762D01*
X28857143Y-46309524D01*
X28809524Y-46214286D01*
X28761905Y-46023810D01*
X28761905Y-45880952D01*
X28809524Y-45690476D01*
X28857143Y-45595238D01*
X28952381Y-45500000D01*
X29095239Y-45452381D01*
X29190477Y-45452381D01*
X29333334Y-45500000D01*
X29380953Y-45547619D01*
X30333334Y-46452381D02*
X29761905Y-46452381D01*
X30047619Y-46452381D02*
X30047619Y-45452381D01*
X29952381Y-45595238D01*
X29857143Y-45690476D01*
X29761905Y-45738095D01*
X30952381Y-45452381D02*
X31047620Y-45452381D01*
X31142858Y-45500000D01*
X31190477Y-45547619D01*
X31238096Y-45642857D01*
X31285715Y-45833333D01*
X31285715Y-46071429D01*
X31238096Y-46261905D01*
X31190477Y-46357143D01*
X31142858Y-46404762D01*
X31047620Y-46452381D01*
X30952381Y-46452381D01*
X30857143Y-46404762D01*
X30809524Y-46357143D01*
X30761905Y-46261905D01*
X30714286Y-46071429D01*
X30714286Y-45833333D01*
X30761905Y-45642857D01*
X30809524Y-45547619D01*
X30857143Y-45500000D01*
X30952381Y-45452381D01*
X31619048Y-45452381D02*
X32238096Y-45452381D01*
X31904762Y-45833333D01*
X32047620Y-45833333D01*
X32142858Y-45880952D01*
X32190477Y-45928571D01*
X32238096Y-46023810D01*
X32238096Y-46261905D01*
X32190477Y-46357143D01*
X32142858Y-46404762D01*
X32047620Y-46452381D01*
X31761905Y-46452381D01*
X31666667Y-46404762D01*
X31619048Y-46357143D01*
X39880953Y-46357143D02*
X39833334Y-46404762D01*
X39690477Y-46452381D01*
X39595239Y-46452381D01*
X39452381Y-46404762D01*
X39357143Y-46309524D01*
X39309524Y-46214286D01*
X39261905Y-46023810D01*
X39261905Y-45880952D01*
X39309524Y-45690476D01*
X39357143Y-45595238D01*
X39452381Y-45500000D01*
X39595239Y-45452381D01*
X39690477Y-45452381D01*
X39833334Y-45500000D01*
X39880953Y-45547619D01*
X40833334Y-46452381D02*
X40261905Y-46452381D01*
X40547619Y-46452381D02*
X40547619Y-45452381D01*
X40452381Y-45595238D01*
X40357143Y-45690476D01*
X40261905Y-45738095D01*
X41452381Y-45452381D02*
X41547620Y-45452381D01*
X41642858Y-45500000D01*
X41690477Y-45547619D01*
X41738096Y-45642857D01*
X41785715Y-45833333D01*
X41785715Y-46071429D01*
X41738096Y-46261905D01*
X41690477Y-46357143D01*
X41642858Y-46404762D01*
X41547620Y-46452381D01*
X41452381Y-46452381D01*
X41357143Y-46404762D01*
X41309524Y-46357143D01*
X41261905Y-46261905D01*
X41214286Y-46071429D01*
X41214286Y-45833333D01*
X41261905Y-45642857D01*
X41309524Y-45547619D01*
X41357143Y-45500000D01*
X41452381Y-45452381D01*
X42642858Y-45785714D02*
X42642858Y-46452381D01*
X42404762Y-45404762D02*
X42166667Y-46119048D01*
X42785715Y-46119048D01*
X52130953Y-50357143D02*
X52083334Y-50404762D01*
X51940477Y-50452381D01*
X51845239Y-50452381D01*
X51702381Y-50404762D01*
X51607143Y-50309524D01*
X51559524Y-50214286D01*
X51511905Y-50023810D01*
X51511905Y-49880952D01*
X51559524Y-49690476D01*
X51607143Y-49595238D01*
X51702381Y-49500000D01*
X51845239Y-49452381D01*
X51940477Y-49452381D01*
X52083334Y-49500000D01*
X52130953Y-49547619D01*
X52511905Y-49547619D02*
X52559524Y-49500000D01*
X52654762Y-49452381D01*
X52892858Y-49452381D01*
X52988096Y-49500000D01*
X53035715Y-49547619D01*
X53083334Y-49642857D01*
X53083334Y-49738095D01*
X53035715Y-49880952D01*
X52464286Y-50452381D01*
X53083334Y-50452381D01*
X53702381Y-49452381D02*
X53797620Y-49452381D01*
X53892858Y-49500000D01*
X53940477Y-49547619D01*
X53988096Y-49642857D01*
X54035715Y-49833333D01*
X54035715Y-50071429D01*
X53988096Y-50261905D01*
X53940477Y-50357143D01*
X53892858Y-50404762D01*
X53797620Y-50452381D01*
X53702381Y-50452381D01*
X53607143Y-50404762D01*
X53559524Y-50357143D01*
X53511905Y-50261905D01*
X53464286Y-50071429D01*
X53464286Y-49833333D01*
X53511905Y-49642857D01*
X53559524Y-49547619D01*
X53607143Y-49500000D01*
X53702381Y-49452381D01*
X54988096Y-50452381D02*
X54416667Y-50452381D01*
X54702381Y-50452381D02*
X54702381Y-49452381D01*
X54607143Y-49595238D01*
X54511905Y-49690476D01*
X54416667Y-49738095D01*
X63130953Y-50357143D02*
X63083334Y-50404762D01*
X62940477Y-50452381D01*
X62845239Y-50452381D01*
X62702381Y-50404762D01*
X62607143Y-50309524D01*
X62559524Y-50214286D01*
X62511905Y-50023810D01*
X62511905Y-49880952D01*
X62559524Y-49690476D01*
X62607143Y-49595238D01*
X62702381Y-49500000D01*
X62845239Y-49452381D01*
X62940477Y-49452381D01*
X63083334Y-49500000D01*
X63130953Y-49547619D01*
X63511905Y-49547619D02*
X63559524Y-49500000D01*
X63654762Y-49452381D01*
X63892858Y-49452381D01*
X63988096Y-49500000D01*
X64035715Y-49547619D01*
X64083334Y-49642857D01*
X64083334Y-49738095D01*
X64035715Y-49880952D01*
X63464286Y-50452381D01*
X64083334Y-50452381D01*
X64702381Y-49452381D02*
X64797620Y-49452381D01*
X64892858Y-49500000D01*
X64940477Y-49547619D01*
X64988096Y-49642857D01*
X65035715Y-49833333D01*
X65035715Y-50071429D01*
X64988096Y-50261905D01*
X64940477Y-50357143D01*
X64892858Y-50404762D01*
X64797620Y-50452381D01*
X64702381Y-50452381D01*
X64607143Y-50404762D01*
X64559524Y-50357143D01*
X64511905Y-50261905D01*
X64464286Y-50071429D01*
X64464286Y-49833333D01*
X64511905Y-49642857D01*
X64559524Y-49547619D01*
X64607143Y-49500000D01*
X64702381Y-49452381D01*
X65416667Y-49547619D02*
X65464286Y-49500000D01*
X65559524Y-49452381D01*
X65797620Y-49452381D01*
X65892858Y-49500000D01*
X65940477Y-49547619D01*
X65988096Y-49642857D01*
X65988096Y-49738095D01*
X65940477Y-49880952D01*
X65369048Y-50452381D01*
X65988096Y-50452381D01*
X50880953Y-46357143D02*
X50833334Y-46404762D01*
X50690477Y-46452381D01*
X50595239Y-46452381D01*
X50452381Y-46404762D01*
X50357143Y-46309524D01*
X50309524Y-46214286D01*
X50261905Y-46023810D01*
X50261905Y-45880952D01*
X50309524Y-45690476D01*
X50357143Y-45595238D01*
X50452381Y-45500000D01*
X50595239Y-45452381D01*
X50690477Y-45452381D01*
X50833334Y-45500000D01*
X50880953Y-45547619D01*
X51261905Y-45547619D02*
X51309524Y-45500000D01*
X51404762Y-45452381D01*
X51642858Y-45452381D01*
X51738096Y-45500000D01*
X51785715Y-45547619D01*
X51833334Y-45642857D01*
X51833334Y-45738095D01*
X51785715Y-45880952D01*
X51214286Y-46452381D01*
X51833334Y-46452381D01*
X52452381Y-45452381D02*
X52547620Y-45452381D01*
X52642858Y-45500000D01*
X52690477Y-45547619D01*
X52738096Y-45642857D01*
X52785715Y-45833333D01*
X52785715Y-46071429D01*
X52738096Y-46261905D01*
X52690477Y-46357143D01*
X52642858Y-46404762D01*
X52547620Y-46452381D01*
X52452381Y-46452381D01*
X52357143Y-46404762D01*
X52309524Y-46357143D01*
X52261905Y-46261905D01*
X52214286Y-46071429D01*
X52214286Y-45833333D01*
X52261905Y-45642857D01*
X52309524Y-45547619D01*
X52357143Y-45500000D01*
X52452381Y-45452381D01*
X53119048Y-45452381D02*
X53738096Y-45452381D01*
X53404762Y-45833333D01*
X53547620Y-45833333D01*
X53642858Y-45880952D01*
X53690477Y-45928571D01*
X53738096Y-46023810D01*
X53738096Y-46261905D01*
X53690477Y-46357143D01*
X53642858Y-46404762D01*
X53547620Y-46452381D01*
X53261905Y-46452381D01*
X53166667Y-46404762D01*
X53119048Y-46357143D01*
X61880953Y-46357143D02*
X61833334Y-46404762D01*
X61690477Y-46452381D01*
X61595239Y-46452381D01*
X61452381Y-46404762D01*
X61357143Y-46309524D01*
X61309524Y-46214286D01*
X61261905Y-46023810D01*
X61261905Y-45880952D01*
X61309524Y-45690476D01*
X61357143Y-45595238D01*
X61452381Y-45500000D01*
X61595239Y-45452381D01*
X61690477Y-45452381D01*
X61833334Y-45500000D01*
X61880953Y-45547619D01*
X62261905Y-45547619D02*
X62309524Y-45500000D01*
X62404762Y-45452381D01*
X62642858Y-45452381D01*
X62738096Y-45500000D01*
X62785715Y-45547619D01*
X62833334Y-45642857D01*
X62833334Y-45738095D01*
X62785715Y-45880952D01*
X62214286Y-46452381D01*
X62833334Y-46452381D01*
X63452381Y-45452381D02*
X63547620Y-45452381D01*
X63642858Y-45500000D01*
X63690477Y-45547619D01*
X63738096Y-45642857D01*
X63785715Y-45833333D01*
X63785715Y-46071429D01*
X63738096Y-46261905D01*
X63690477Y-46357143D01*
X63642858Y-46404762D01*
X63547620Y-46452381D01*
X63452381Y-46452381D01*
X63357143Y-46404762D01*
X63309524Y-46357143D01*
X63261905Y-46261905D01*
X63214286Y-46071429D01*
X63214286Y-45833333D01*
X63261905Y-45642857D01*
X63309524Y-45547619D01*
X63357143Y-45500000D01*
X63452381Y-45452381D01*
X64642858Y-45785714D02*
X64642858Y-46452381D01*
X64404762Y-45404762D02*
X64166667Y-46119048D01*
X64785715Y-46119048D01*
X48702381Y-24738095D02*
X47702381Y-24738095D01*
X47702381Y-24500000D01*
X47750000Y-24357142D01*
X47845238Y-24261904D01*
X47940476Y-24214285D01*
X48130952Y-24166666D01*
X48273810Y-24166666D01*
X48464286Y-24214285D01*
X48559524Y-24261904D01*
X48654762Y-24357142D01*
X48702381Y-24500000D01*
X48702381Y-24738095D01*
X48702381Y-23214285D02*
X48702381Y-23785714D01*
X48702381Y-23500000D02*
X47702381Y-23500000D01*
X47845238Y-23595238D01*
X47940476Y-23690476D01*
X47988095Y-23785714D01*
X35309524Y-42452381D02*
X35309524Y-41452381D01*
X35547619Y-41452381D01*
X35690477Y-41500000D01*
X35785715Y-41595238D01*
X35833334Y-41690476D01*
X35880953Y-41880952D01*
X35880953Y-42023810D01*
X35833334Y-42214286D01*
X35785715Y-42309524D01*
X35690477Y-42404762D01*
X35547619Y-42452381D01*
X35309524Y-42452381D01*
X36833334Y-42452381D02*
X36261905Y-42452381D01*
X36547619Y-42452381D02*
X36547619Y-41452381D01*
X36452381Y-41595238D01*
X36357143Y-41690476D01*
X36261905Y-41738095D01*
X37452381Y-41452381D02*
X37547620Y-41452381D01*
X37642858Y-41500000D01*
X37690477Y-41547619D01*
X37738096Y-41642857D01*
X37785715Y-41833333D01*
X37785715Y-42071429D01*
X37738096Y-42261905D01*
X37690477Y-42357143D01*
X37642858Y-42404762D01*
X37547620Y-42452381D01*
X37452381Y-42452381D01*
X37357143Y-42404762D01*
X37309524Y-42357143D01*
X37261905Y-42261905D01*
X37214286Y-42071429D01*
X37214286Y-41833333D01*
X37261905Y-41642857D01*
X37309524Y-41547619D01*
X37357143Y-41500000D01*
X37452381Y-41452381D01*
X38738096Y-42452381D02*
X38166667Y-42452381D01*
X38452381Y-42452381D02*
X38452381Y-41452381D01*
X38357143Y-41595238D01*
X38261905Y-41690476D01*
X38166667Y-41738095D01*
X36309524Y-36452381D02*
X36309524Y-35452381D01*
X36547619Y-35452381D01*
X36690477Y-35500000D01*
X36785715Y-35595238D01*
X36833334Y-35690476D01*
X36880953Y-35880952D01*
X36880953Y-36023810D01*
X36833334Y-36214286D01*
X36785715Y-36309524D01*
X36690477Y-36404762D01*
X36547619Y-36452381D01*
X36309524Y-36452381D01*
X37833334Y-36452381D02*
X37261905Y-36452381D01*
X37547619Y-36452381D02*
X37547619Y-35452381D01*
X37452381Y-35595238D01*
X37357143Y-35690476D01*
X37261905Y-35738095D01*
X38452381Y-35452381D02*
X38547620Y-35452381D01*
X38642858Y-35500000D01*
X38690477Y-35547619D01*
X38738096Y-35642857D01*
X38785715Y-35833333D01*
X38785715Y-36071429D01*
X38738096Y-36261905D01*
X38690477Y-36357143D01*
X38642858Y-36404762D01*
X38547620Y-36452381D01*
X38452381Y-36452381D01*
X38357143Y-36404762D01*
X38309524Y-36357143D01*
X38261905Y-36261905D01*
X38214286Y-36071429D01*
X38214286Y-35833333D01*
X38261905Y-35642857D01*
X38309524Y-35547619D01*
X38357143Y-35500000D01*
X38452381Y-35452381D01*
X39166667Y-35547619D02*
X39214286Y-35500000D01*
X39309524Y-35452381D01*
X39547620Y-35452381D01*
X39642858Y-35500000D01*
X39690477Y-35547619D01*
X39738096Y-35642857D01*
X39738096Y-35738095D01*
X39690477Y-35880952D01*
X39119048Y-36452381D01*
X39738096Y-36452381D01*
X35309524Y-62452381D02*
X35309524Y-61452381D01*
X35547619Y-61452381D01*
X35690477Y-61500000D01*
X35785715Y-61595238D01*
X35833334Y-61690476D01*
X35880953Y-61880952D01*
X35880953Y-62023810D01*
X35833334Y-62214286D01*
X35785715Y-62309524D01*
X35690477Y-62404762D01*
X35547619Y-62452381D01*
X35309524Y-62452381D01*
X36833334Y-62452381D02*
X36261905Y-62452381D01*
X36547619Y-62452381D02*
X36547619Y-61452381D01*
X36452381Y-61595238D01*
X36357143Y-61690476D01*
X36261905Y-61738095D01*
X37452381Y-61452381D02*
X37547620Y-61452381D01*
X37642858Y-61500000D01*
X37690477Y-61547619D01*
X37738096Y-61642857D01*
X37785715Y-61833333D01*
X37785715Y-62071429D01*
X37738096Y-62261905D01*
X37690477Y-62357143D01*
X37642858Y-62404762D01*
X37547620Y-62452381D01*
X37452381Y-62452381D01*
X37357143Y-62404762D01*
X37309524Y-62357143D01*
X37261905Y-62261905D01*
X37214286Y-62071429D01*
X37214286Y-61833333D01*
X37261905Y-61642857D01*
X37309524Y-61547619D01*
X37357143Y-61500000D01*
X37452381Y-61452381D01*
X38119048Y-61452381D02*
X38738096Y-61452381D01*
X38404762Y-61833333D01*
X38547620Y-61833333D01*
X38642858Y-61880952D01*
X38690477Y-61928571D01*
X38738096Y-62023810D01*
X38738096Y-62261905D01*
X38690477Y-62357143D01*
X38642858Y-62404762D01*
X38547620Y-62452381D01*
X38261905Y-62452381D01*
X38166667Y-62404762D01*
X38119048Y-62357143D01*
X56309524Y-42452381D02*
X56309524Y-41452381D01*
X56547619Y-41452381D01*
X56690477Y-41500000D01*
X56785715Y-41595238D01*
X56833334Y-41690476D01*
X56880953Y-41880952D01*
X56880953Y-42023810D01*
X56833334Y-42214286D01*
X56785715Y-42309524D01*
X56690477Y-42404762D01*
X56547619Y-42452381D01*
X56309524Y-42452381D01*
X57261905Y-41547619D02*
X57309524Y-41500000D01*
X57404762Y-41452381D01*
X57642858Y-41452381D01*
X57738096Y-41500000D01*
X57785715Y-41547619D01*
X57833334Y-41642857D01*
X57833334Y-41738095D01*
X57785715Y-41880952D01*
X57214286Y-42452381D01*
X57833334Y-42452381D01*
X58452381Y-41452381D02*
X58547620Y-41452381D01*
X58642858Y-41500000D01*
X58690477Y-41547619D01*
X58738096Y-41642857D01*
X58785715Y-41833333D01*
X58785715Y-42071429D01*
X58738096Y-42261905D01*
X58690477Y-42357143D01*
X58642858Y-42404762D01*
X58547620Y-42452381D01*
X58452381Y-42452381D01*
X58357143Y-42404762D01*
X58309524Y-42357143D01*
X58261905Y-42261905D01*
X58214286Y-42071429D01*
X58214286Y-41833333D01*
X58261905Y-41642857D01*
X58309524Y-41547619D01*
X58357143Y-41500000D01*
X58452381Y-41452381D01*
X59738096Y-42452381D02*
X59166667Y-42452381D01*
X59452381Y-42452381D02*
X59452381Y-41452381D01*
X59357143Y-41595238D01*
X59261905Y-41690476D01*
X59166667Y-41738095D01*
X55309524Y-68452381D02*
X55309524Y-67452381D01*
X55547619Y-67452381D01*
X55690477Y-67500000D01*
X55785715Y-67595238D01*
X55833334Y-67690476D01*
X55880953Y-67880952D01*
X55880953Y-68023810D01*
X55833334Y-68214286D01*
X55785715Y-68309524D01*
X55690477Y-68404762D01*
X55547619Y-68452381D01*
X55309524Y-68452381D01*
X56261905Y-67547619D02*
X56309524Y-67500000D01*
X56404762Y-67452381D01*
X56642858Y-67452381D01*
X56738096Y-67500000D01*
X56785715Y-67547619D01*
X56833334Y-67642857D01*
X56833334Y-67738095D01*
X56785715Y-67880952D01*
X56214286Y-68452381D01*
X56833334Y-68452381D01*
X57452381Y-67452381D02*
X57547620Y-67452381D01*
X57642858Y-67500000D01*
X57690477Y-67547619D01*
X57738096Y-67642857D01*
X57785715Y-67833333D01*
X57785715Y-68071429D01*
X57738096Y-68261905D01*
X57690477Y-68357143D01*
X57642858Y-68404762D01*
X57547620Y-68452381D01*
X57452381Y-68452381D01*
X57357143Y-68404762D01*
X57309524Y-68357143D01*
X57261905Y-68261905D01*
X57214286Y-68071429D01*
X57214286Y-67833333D01*
X57261905Y-67642857D01*
X57309524Y-67547619D01*
X57357143Y-67500000D01*
X57452381Y-67452381D01*
X58642858Y-67785714D02*
X58642858Y-68452381D01*
X58404762Y-67404762D02*
X58166667Y-68119048D01*
X58785715Y-68119048D01*
X41761905Y-76952381D02*
X41761905Y-75952381D01*
X42142858Y-75952381D01*
X42238096Y-76000000D01*
X42285715Y-76047619D01*
X42333334Y-76142857D01*
X42333334Y-76285714D01*
X42285715Y-76380952D01*
X42238096Y-76428571D01*
X42142858Y-76476190D01*
X41761905Y-76476190D01*
X43285715Y-76952381D02*
X42714286Y-76952381D01*
X43000000Y-76952381D02*
X43000000Y-75952381D01*
X42904762Y-76095238D01*
X42809524Y-76190476D01*
X42714286Y-76238095D01*
X29952381Y-82690476D02*
X28952381Y-82690476D01*
X28952381Y-82309523D01*
X29000000Y-82214285D01*
X29047619Y-82166666D01*
X29142857Y-82119047D01*
X29285714Y-82119047D01*
X29380952Y-82166666D01*
X29428571Y-82214285D01*
X29476190Y-82309523D01*
X29476190Y-82690476D01*
X29952381Y-81166666D02*
X29952381Y-81738095D01*
X29952381Y-81452381D02*
X28952381Y-81452381D01*
X29095238Y-81547619D01*
X29190476Y-81642857D01*
X29238095Y-81738095D01*
X28952381Y-80547619D02*
X28952381Y-80452380D01*
X29000000Y-80357142D01*
X29047619Y-80309523D01*
X29142857Y-80261904D01*
X29333333Y-80214285D01*
X29571429Y-80214285D01*
X29761905Y-80261904D01*
X29857143Y-80309523D01*
X29904762Y-80357142D01*
X29952381Y-80452380D01*
X29952381Y-80547619D01*
X29904762Y-80642857D01*
X29857143Y-80690476D01*
X29761905Y-80738095D01*
X29571429Y-80785714D01*
X29333333Y-80785714D01*
X29142857Y-80738095D01*
X29047619Y-80690476D01*
X29000000Y-80642857D01*
X28952381Y-80547619D01*
X29952381Y-79261904D02*
X29952381Y-79833333D01*
X29952381Y-79547619D02*
X28952381Y-79547619D01*
X29095238Y-79642857D01*
X29190476Y-79738095D01*
X29238095Y-79833333D01*
X29452381Y-27690476D02*
X28452381Y-27690476D01*
X28452381Y-27309523D01*
X28500000Y-27214285D01*
X28547619Y-27166666D01*
X28642857Y-27119047D01*
X28785714Y-27119047D01*
X28880952Y-27166666D01*
X28928571Y-27214285D01*
X28976190Y-27309523D01*
X28976190Y-27690476D01*
X29452381Y-26166666D02*
X29452381Y-26738095D01*
X29452381Y-26452381D02*
X28452381Y-26452381D01*
X28595238Y-26547619D01*
X28690476Y-26642857D01*
X28738095Y-26738095D01*
X28452381Y-25547619D02*
X28452381Y-25452380D01*
X28500000Y-25357142D01*
X28547619Y-25309523D01*
X28642857Y-25261904D01*
X28833333Y-25214285D01*
X29071429Y-25214285D01*
X29261905Y-25261904D01*
X29357143Y-25309523D01*
X29404762Y-25357142D01*
X29452381Y-25452380D01*
X29452381Y-25547619D01*
X29404762Y-25642857D01*
X29357143Y-25690476D01*
X29261905Y-25738095D01*
X29071429Y-25785714D01*
X28833333Y-25785714D01*
X28642857Y-25738095D01*
X28547619Y-25690476D01*
X28500000Y-25642857D01*
X28452381Y-25547619D01*
X28547619Y-24833333D02*
X28500000Y-24785714D01*
X28452381Y-24690476D01*
X28452381Y-24452380D01*
X28500000Y-24357142D01*
X28547619Y-24309523D01*
X28642857Y-24261904D01*
X28738095Y-24261904D01*
X28880952Y-24309523D01*
X29452381Y-24880952D01*
X29452381Y-24261904D01*
X65952381Y-82690476D02*
X64952381Y-82690476D01*
X64952381Y-82309523D01*
X65000000Y-82214285D01*
X65047619Y-82166666D01*
X65142857Y-82119047D01*
X65285714Y-82119047D01*
X65380952Y-82166666D01*
X65428571Y-82214285D01*
X65476190Y-82309523D01*
X65476190Y-82690476D01*
X65047619Y-81738095D02*
X65000000Y-81690476D01*
X64952381Y-81595238D01*
X64952381Y-81357142D01*
X65000000Y-81261904D01*
X65047619Y-81214285D01*
X65142857Y-81166666D01*
X65238095Y-81166666D01*
X65380952Y-81214285D01*
X65952381Y-81785714D01*
X65952381Y-81166666D01*
X64952381Y-80547619D02*
X64952381Y-80452380D01*
X65000000Y-80357142D01*
X65047619Y-80309523D01*
X65142857Y-80261904D01*
X65333333Y-80214285D01*
X65571429Y-80214285D01*
X65761905Y-80261904D01*
X65857143Y-80309523D01*
X65904762Y-80357142D01*
X65952381Y-80452380D01*
X65952381Y-80547619D01*
X65904762Y-80642857D01*
X65857143Y-80690476D01*
X65761905Y-80738095D01*
X65571429Y-80785714D01*
X65333333Y-80785714D01*
X65142857Y-80738095D01*
X65047619Y-80690476D01*
X65000000Y-80642857D01*
X64952381Y-80547619D01*
X65952381Y-79261904D02*
X65952381Y-79833333D01*
X65952381Y-79547619D02*
X64952381Y-79547619D01*
X65095238Y-79642857D01*
X65190476Y-79738095D01*
X65238095Y-79833333D01*
X54452381Y-27690476D02*
X53452381Y-27690476D01*
X53452381Y-27309523D01*
X53500000Y-27214285D01*
X53547619Y-27166666D01*
X53642857Y-27119047D01*
X53785714Y-27119047D01*
X53880952Y-27166666D01*
X53928571Y-27214285D01*
X53976190Y-27309523D01*
X53976190Y-27690476D01*
X53547619Y-26738095D02*
X53500000Y-26690476D01*
X53452381Y-26595238D01*
X53452381Y-26357142D01*
X53500000Y-26261904D01*
X53547619Y-26214285D01*
X53642857Y-26166666D01*
X53738095Y-26166666D01*
X53880952Y-26214285D01*
X54452381Y-26785714D01*
X54452381Y-26166666D01*
X53452381Y-25547619D02*
X53452381Y-25452380D01*
X53500000Y-25357142D01*
X53547619Y-25309523D01*
X53642857Y-25261904D01*
X53833333Y-25214285D01*
X54071429Y-25214285D01*
X54261905Y-25261904D01*
X54357143Y-25309523D01*
X54404762Y-25357142D01*
X54452381Y-25452380D01*
X54452381Y-25547619D01*
X54404762Y-25642857D01*
X54357143Y-25690476D01*
X54261905Y-25738095D01*
X54071429Y-25785714D01*
X53833333Y-25785714D01*
X53642857Y-25738095D01*
X53547619Y-25690476D01*
X53500000Y-25642857D01*
X53452381Y-25547619D01*
X53547619Y-24833333D02*
X53500000Y-24785714D01*
X53452381Y-24690476D01*
X53452381Y-24452380D01*
X53500000Y-24357142D01*
X53547619Y-24309523D01*
X53642857Y-24261904D01*
X53738095Y-24261904D01*
X53880952Y-24309523D01*
X54452381Y-24880952D01*
X54452381Y-24261904D01*
X26547619Y-35047619D02*
X26500000Y-35142857D01*
X26404762Y-35238095D01*
X26261905Y-35380952D01*
X26214286Y-35476191D01*
X26214286Y-35571429D01*
X26452381Y-35523810D02*
X26404762Y-35619048D01*
X26309524Y-35714286D01*
X26119048Y-35761905D01*
X25785714Y-35761905D01*
X25595238Y-35714286D01*
X25500000Y-35619048D01*
X25452381Y-35523810D01*
X25452381Y-35333333D01*
X25500000Y-35238095D01*
X25595238Y-35142857D01*
X25785714Y-35095238D01*
X26119048Y-35095238D01*
X26309524Y-35142857D01*
X26404762Y-35238095D01*
X26452381Y-35333333D01*
X26452381Y-35523810D01*
X26452381Y-34142857D02*
X26452381Y-34714286D01*
X26452381Y-34428572D02*
X25452381Y-34428572D01*
X25595238Y-34523810D01*
X25690476Y-34619048D01*
X25738095Y-34714286D01*
X25452381Y-33523810D02*
X25452381Y-33428571D01*
X25500000Y-33333333D01*
X25547619Y-33285714D01*
X25642857Y-33238095D01*
X25833333Y-33190476D01*
X26071429Y-33190476D01*
X26261905Y-33238095D01*
X26357143Y-33285714D01*
X26404762Y-33333333D01*
X26452381Y-33428571D01*
X26452381Y-33523810D01*
X26404762Y-33619048D01*
X26357143Y-33666667D01*
X26261905Y-33714286D01*
X26071429Y-33761905D01*
X25833333Y-33761905D01*
X25642857Y-33714286D01*
X25547619Y-33666667D01*
X25500000Y-33619048D01*
X25452381Y-33523810D01*
X26452381Y-32238095D02*
X26452381Y-32809524D01*
X26452381Y-32523810D02*
X25452381Y-32523810D01*
X25595238Y-32619048D01*
X25690476Y-32714286D01*
X25738095Y-32809524D01*
X26547619Y-47047619D02*
X26500000Y-47142857D01*
X26404762Y-47238095D01*
X26261905Y-47380952D01*
X26214286Y-47476191D01*
X26214286Y-47571429D01*
X26452381Y-47523810D02*
X26404762Y-47619048D01*
X26309524Y-47714286D01*
X26119048Y-47761905D01*
X25785714Y-47761905D01*
X25595238Y-47714286D01*
X25500000Y-47619048D01*
X25452381Y-47523810D01*
X25452381Y-47333333D01*
X25500000Y-47238095D01*
X25595238Y-47142857D01*
X25785714Y-47095238D01*
X26119048Y-47095238D01*
X26309524Y-47142857D01*
X26404762Y-47238095D01*
X26452381Y-47333333D01*
X26452381Y-47523810D01*
X26452381Y-46142857D02*
X26452381Y-46714286D01*
X26452381Y-46428572D02*
X25452381Y-46428572D01*
X25595238Y-46523810D01*
X25690476Y-46619048D01*
X25738095Y-46714286D01*
X25452381Y-45523810D02*
X25452381Y-45428571D01*
X25500000Y-45333333D01*
X25547619Y-45285714D01*
X25642857Y-45238095D01*
X25833333Y-45190476D01*
X26071429Y-45190476D01*
X26261905Y-45238095D01*
X26357143Y-45285714D01*
X26404762Y-45333333D01*
X26452381Y-45428571D01*
X26452381Y-45523810D01*
X26404762Y-45619048D01*
X26357143Y-45666667D01*
X26261905Y-45714286D01*
X26071429Y-45761905D01*
X25833333Y-45761905D01*
X25642857Y-45714286D01*
X25547619Y-45666667D01*
X25500000Y-45619048D01*
X25452381Y-45523810D01*
X25547619Y-44809524D02*
X25500000Y-44761905D01*
X25452381Y-44666667D01*
X25452381Y-44428571D01*
X25500000Y-44333333D01*
X25547619Y-44285714D01*
X25642857Y-44238095D01*
X25738095Y-44238095D01*
X25880952Y-44285714D01*
X26452381Y-44857143D01*
X26452381Y-44238095D01*
X26547619Y-59047619D02*
X26500000Y-59142857D01*
X26404762Y-59238095D01*
X26261905Y-59380952D01*
X26214286Y-59476191D01*
X26214286Y-59571429D01*
X26452381Y-59523810D02*
X26404762Y-59619048D01*
X26309524Y-59714286D01*
X26119048Y-59761905D01*
X25785714Y-59761905D01*
X25595238Y-59714286D01*
X25500000Y-59619048D01*
X25452381Y-59523810D01*
X25452381Y-59333333D01*
X25500000Y-59238095D01*
X25595238Y-59142857D01*
X25785714Y-59095238D01*
X26119048Y-59095238D01*
X26309524Y-59142857D01*
X26404762Y-59238095D01*
X26452381Y-59333333D01*
X26452381Y-59523810D01*
X26452381Y-58142857D02*
X26452381Y-58714286D01*
X26452381Y-58428572D02*
X25452381Y-58428572D01*
X25595238Y-58523810D01*
X25690476Y-58619048D01*
X25738095Y-58714286D01*
X25452381Y-57523810D02*
X25452381Y-57428571D01*
X25500000Y-57333333D01*
X25547619Y-57285714D01*
X25642857Y-57238095D01*
X25833333Y-57190476D01*
X26071429Y-57190476D01*
X26261905Y-57238095D01*
X26357143Y-57285714D01*
X26404762Y-57333333D01*
X26452381Y-57428571D01*
X26452381Y-57523810D01*
X26404762Y-57619048D01*
X26357143Y-57666667D01*
X26261905Y-57714286D01*
X26071429Y-57761905D01*
X25833333Y-57761905D01*
X25642857Y-57714286D01*
X25547619Y-57666667D01*
X25500000Y-57619048D01*
X25452381Y-57523810D01*
X25452381Y-56857143D02*
X25452381Y-56238095D01*
X25833333Y-56571429D01*
X25833333Y-56428571D01*
X25880952Y-56333333D01*
X25928571Y-56285714D01*
X26023810Y-56238095D01*
X26261905Y-56238095D01*
X26357143Y-56285714D01*
X26404762Y-56333333D01*
X26452381Y-56428571D01*
X26452381Y-56714286D01*
X26404762Y-56809524D01*
X26357143Y-56857143D01*
X26547619Y-71047619D02*
X26500000Y-71142857D01*
X26404762Y-71238095D01*
X26261905Y-71380952D01*
X26214286Y-71476191D01*
X26214286Y-71571429D01*
X26452381Y-71523810D02*
X26404762Y-71619048D01*
X26309524Y-71714286D01*
X26119048Y-71761905D01*
X25785714Y-71761905D01*
X25595238Y-71714286D01*
X25500000Y-71619048D01*
X25452381Y-71523810D01*
X25452381Y-71333333D01*
X25500000Y-71238095D01*
X25595238Y-71142857D01*
X25785714Y-71095238D01*
X26119048Y-71095238D01*
X26309524Y-71142857D01*
X26404762Y-71238095D01*
X26452381Y-71333333D01*
X26452381Y-71523810D01*
X26452381Y-70142857D02*
X26452381Y-70714286D01*
X26452381Y-70428572D02*
X25452381Y-70428572D01*
X25595238Y-70523810D01*
X25690476Y-70619048D01*
X25738095Y-70714286D01*
X25452381Y-69523810D02*
X25452381Y-69428571D01*
X25500000Y-69333333D01*
X25547619Y-69285714D01*
X25642857Y-69238095D01*
X25833333Y-69190476D01*
X26071429Y-69190476D01*
X26261905Y-69238095D01*
X26357143Y-69285714D01*
X26404762Y-69333333D01*
X26452381Y-69428571D01*
X26452381Y-69523810D01*
X26404762Y-69619048D01*
X26357143Y-69666667D01*
X26261905Y-69714286D01*
X26071429Y-69761905D01*
X25833333Y-69761905D01*
X25642857Y-69714286D01*
X25547619Y-69666667D01*
X25500000Y-69619048D01*
X25452381Y-69523810D01*
X25785714Y-68333333D02*
X26452381Y-68333333D01*
X25404762Y-68571429D02*
X26119048Y-68809524D01*
X26119048Y-68190476D01*
X69547619Y-35047619D02*
X69500000Y-35142857D01*
X69404762Y-35238095D01*
X69261905Y-35380952D01*
X69214286Y-35476191D01*
X69214286Y-35571429D01*
X69452381Y-35523810D02*
X69404762Y-35619048D01*
X69309524Y-35714286D01*
X69119048Y-35761905D01*
X68785714Y-35761905D01*
X68595238Y-35714286D01*
X68500000Y-35619048D01*
X68452381Y-35523810D01*
X68452381Y-35333333D01*
X68500000Y-35238095D01*
X68595238Y-35142857D01*
X68785714Y-35095238D01*
X69119048Y-35095238D01*
X69309524Y-35142857D01*
X69404762Y-35238095D01*
X69452381Y-35333333D01*
X69452381Y-35523810D01*
X68547619Y-34714286D02*
X68500000Y-34666667D01*
X68452381Y-34571429D01*
X68452381Y-34333333D01*
X68500000Y-34238095D01*
X68547619Y-34190476D01*
X68642857Y-34142857D01*
X68738095Y-34142857D01*
X68880952Y-34190476D01*
X69452381Y-34761905D01*
X69452381Y-34142857D01*
X68452381Y-33523810D02*
X68452381Y-33428571D01*
X68500000Y-33333333D01*
X68547619Y-33285714D01*
X68642857Y-33238095D01*
X68833333Y-33190476D01*
X69071429Y-33190476D01*
X69261905Y-33238095D01*
X69357143Y-33285714D01*
X69404762Y-33333333D01*
X69452381Y-33428571D01*
X69452381Y-33523810D01*
X69404762Y-33619048D01*
X69357143Y-33666667D01*
X69261905Y-33714286D01*
X69071429Y-33761905D01*
X68833333Y-33761905D01*
X68642857Y-33714286D01*
X68547619Y-33666667D01*
X68500000Y-33619048D01*
X68452381Y-33523810D01*
X69452381Y-32238095D02*
X69452381Y-32809524D01*
X69452381Y-32523810D02*
X68452381Y-32523810D01*
X68595238Y-32619048D01*
X68690476Y-32714286D01*
X68738095Y-32809524D01*
X69547619Y-47047619D02*
X69500000Y-47142857D01*
X69404762Y-47238095D01*
X69261905Y-47380952D01*
X69214286Y-47476191D01*
X69214286Y-47571429D01*
X69452381Y-47523810D02*
X69404762Y-47619048D01*
X69309524Y-47714286D01*
X69119048Y-47761905D01*
X68785714Y-47761905D01*
X68595238Y-47714286D01*
X68500000Y-47619048D01*
X68452381Y-47523810D01*
X68452381Y-47333333D01*
X68500000Y-47238095D01*
X68595238Y-47142857D01*
X68785714Y-47095238D01*
X69119048Y-47095238D01*
X69309524Y-47142857D01*
X69404762Y-47238095D01*
X69452381Y-47333333D01*
X69452381Y-47523810D01*
X68547619Y-46714286D02*
X68500000Y-46666667D01*
X68452381Y-46571429D01*
X68452381Y-46333333D01*
X68500000Y-46238095D01*
X68547619Y-46190476D01*
X68642857Y-46142857D01*
X68738095Y-46142857D01*
X68880952Y-46190476D01*
X69452381Y-46761905D01*
X69452381Y-46142857D01*
X68452381Y-45523810D02*
X68452381Y-45428571D01*
X68500000Y-45333333D01*
X68547619Y-45285714D01*
X68642857Y-45238095D01*
X68833333Y-45190476D01*
X69071429Y-45190476D01*
X69261905Y-45238095D01*
X69357143Y-45285714D01*
X69404762Y-45333333D01*
X69452381Y-45428571D01*
X69452381Y-45523810D01*
X69404762Y-45619048D01*
X69357143Y-45666667D01*
X69261905Y-45714286D01*
X69071429Y-45761905D01*
X68833333Y-45761905D01*
X68642857Y-45714286D01*
X68547619Y-45666667D01*
X68500000Y-45619048D01*
X68452381Y-45523810D01*
X68547619Y-44809524D02*
X68500000Y-44761905D01*
X68452381Y-44666667D01*
X68452381Y-44428571D01*
X68500000Y-44333333D01*
X68547619Y-44285714D01*
X68642857Y-44238095D01*
X68738095Y-44238095D01*
X68880952Y-44285714D01*
X69452381Y-44857143D01*
X69452381Y-44238095D01*
X69547619Y-59047619D02*
X69500000Y-59142857D01*
X69404762Y-59238095D01*
X69261905Y-59380952D01*
X69214286Y-59476191D01*
X69214286Y-59571429D01*
X69452381Y-59523810D02*
X69404762Y-59619048D01*
X69309524Y-59714286D01*
X69119048Y-59761905D01*
X68785714Y-59761905D01*
X68595238Y-59714286D01*
X68500000Y-59619048D01*
X68452381Y-59523810D01*
X68452381Y-59333333D01*
X68500000Y-59238095D01*
X68595238Y-59142857D01*
X68785714Y-59095238D01*
X69119048Y-59095238D01*
X69309524Y-59142857D01*
X69404762Y-59238095D01*
X69452381Y-59333333D01*
X69452381Y-59523810D01*
X68547619Y-58714286D02*
X68500000Y-58666667D01*
X68452381Y-58571429D01*
X68452381Y-58333333D01*
X68500000Y-58238095D01*
X68547619Y-58190476D01*
X68642857Y-58142857D01*
X68738095Y-58142857D01*
X68880952Y-58190476D01*
X69452381Y-58761905D01*
X69452381Y-58142857D01*
X68452381Y-57523810D02*
X68452381Y-57428571D01*
X68500000Y-57333333D01*
X68547619Y-57285714D01*
X68642857Y-57238095D01*
X68833333Y-57190476D01*
X69071429Y-57190476D01*
X69261905Y-57238095D01*
X69357143Y-57285714D01*
X69404762Y-57333333D01*
X69452381Y-57428571D01*
X69452381Y-57523810D01*
X69404762Y-57619048D01*
X69357143Y-57666667D01*
X69261905Y-57714286D01*
X69071429Y-57761905D01*
X68833333Y-57761905D01*
X68642857Y-57714286D01*
X68547619Y-57666667D01*
X68500000Y-57619048D01*
X68452381Y-57523810D01*
X68452381Y-56857143D02*
X68452381Y-56238095D01*
X68833333Y-56571429D01*
X68833333Y-56428571D01*
X68880952Y-56333333D01*
X68928571Y-56285714D01*
X69023810Y-56238095D01*
X69261905Y-56238095D01*
X69357143Y-56285714D01*
X69404762Y-56333333D01*
X69452381Y-56428571D01*
X69452381Y-56714286D01*
X69404762Y-56809524D01*
X69357143Y-56857143D01*
X69547619Y-71047619D02*
X69500000Y-71142857D01*
X69404762Y-71238095D01*
X69261905Y-71380952D01*
X69214286Y-71476191D01*
X69214286Y-71571429D01*
X69452381Y-71523810D02*
X69404762Y-71619048D01*
X69309524Y-71714286D01*
X69119048Y-71761905D01*
X68785714Y-71761905D01*
X68595238Y-71714286D01*
X68500000Y-71619048D01*
X68452381Y-71523810D01*
X68452381Y-71333333D01*
X68500000Y-71238095D01*
X68595238Y-71142857D01*
X68785714Y-71095238D01*
X69119048Y-71095238D01*
X69309524Y-71142857D01*
X69404762Y-71238095D01*
X69452381Y-71333333D01*
X69452381Y-71523810D01*
X68547619Y-70714286D02*
X68500000Y-70666667D01*
X68452381Y-70571429D01*
X68452381Y-70333333D01*
X68500000Y-70238095D01*
X68547619Y-70190476D01*
X68642857Y-70142857D01*
X68738095Y-70142857D01*
X68880952Y-70190476D01*
X69452381Y-70761905D01*
X69452381Y-70142857D01*
X68452381Y-69523810D02*
X68452381Y-69428571D01*
X68500000Y-69333333D01*
X68547619Y-69285714D01*
X68642857Y-69238095D01*
X68833333Y-69190476D01*
X69071429Y-69190476D01*
X69261905Y-69238095D01*
X69357143Y-69285714D01*
X69404762Y-69333333D01*
X69452381Y-69428571D01*
X69452381Y-69523810D01*
X69404762Y-69619048D01*
X69357143Y-69666667D01*
X69261905Y-69714286D01*
X69071429Y-69761905D01*
X68833333Y-69761905D01*
X68642857Y-69714286D01*
X68547619Y-69666667D01*
X68500000Y-69619048D01*
X68452381Y-69523810D01*
X68785714Y-68333333D02*
X69452381Y-68333333D01*
X68404762Y-68571429D02*
X69119048Y-68809524D01*
X69119048Y-68190476D01*
X42352381Y-24166666D02*
X41876190Y-24500000D01*
X42352381Y-24738095D02*
X41352381Y-24738095D01*
X41352381Y-24357142D01*
X41400000Y-24261904D01*
X41447619Y-24214285D01*
X41542857Y-24166666D01*
X41685714Y-24166666D01*
X41780952Y-24214285D01*
X41828571Y-24261904D01*
X41876190Y-24357142D01*
X41876190Y-24738095D01*
X42352381Y-23214285D02*
X42352381Y-23785714D01*
X42352381Y-23500000D02*
X41352381Y-23500000D01*
X41495238Y-23595238D01*
X41590476Y-23690476D01*
X41638095Y-23785714D01*
X46952381Y-74119047D02*
X46476190Y-74452381D01*
X46952381Y-74690476D02*
X45952381Y-74690476D01*
X45952381Y-74309523D01*
X46000000Y-74214285D01*
X46047619Y-74166666D01*
X46142857Y-74119047D01*
X46285714Y-74119047D01*
X46380952Y-74166666D01*
X46428571Y-74214285D01*
X46476190Y-74309523D01*
X46476190Y-74690476D01*
X46952381Y-73166666D02*
X46952381Y-73738095D01*
X46952381Y-73452381D02*
X45952381Y-73452381D01*
X46095238Y-73547619D01*
X46190476Y-73642857D01*
X46238095Y-73738095D01*
X45952381Y-72547619D02*
X45952381Y-72452380D01*
X46000000Y-72357142D01*
X46047619Y-72309523D01*
X46142857Y-72261904D01*
X46333333Y-72214285D01*
X46571429Y-72214285D01*
X46761905Y-72261904D01*
X46857143Y-72309523D01*
X46904762Y-72357142D01*
X46952381Y-72452380D01*
X46952381Y-72547619D01*
X46904762Y-72642857D01*
X46857143Y-72690476D01*
X46761905Y-72738095D01*
X46571429Y-72785714D01*
X46333333Y-72785714D01*
X46142857Y-72738095D01*
X46047619Y-72690476D01*
X46000000Y-72642857D01*
X45952381Y-72547619D01*
X46952381Y-71261904D02*
X46952381Y-71833333D01*
X46952381Y-71547619D02*
X45952381Y-71547619D01*
X46095238Y-71642857D01*
X46190476Y-71738095D01*
X46238095Y-71833333D01*
X45452381Y-74119047D02*
X44976190Y-74452381D01*
X45452381Y-74690476D02*
X44452381Y-74690476D01*
X44452381Y-74309523D01*
X44500000Y-74214285D01*
X44547619Y-74166666D01*
X44642857Y-74119047D01*
X44785714Y-74119047D01*
X44880952Y-74166666D01*
X44928571Y-74214285D01*
X44976190Y-74309523D01*
X44976190Y-74690476D01*
X45452381Y-73166666D02*
X45452381Y-73738095D01*
X45452381Y-73452381D02*
X44452381Y-73452381D01*
X44595238Y-73547619D01*
X44690476Y-73642857D01*
X44738095Y-73738095D01*
X44452381Y-72547619D02*
X44452381Y-72452380D01*
X44500000Y-72357142D01*
X44547619Y-72309523D01*
X44642857Y-72261904D01*
X44833333Y-72214285D01*
X45071429Y-72214285D01*
X45261905Y-72261904D01*
X45357143Y-72309523D01*
X45404762Y-72357142D01*
X45452381Y-72452380D01*
X45452381Y-72547619D01*
X45404762Y-72642857D01*
X45357143Y-72690476D01*
X45261905Y-72738095D01*
X45071429Y-72785714D01*
X44833333Y-72785714D01*
X44642857Y-72738095D01*
X44547619Y-72690476D01*
X44500000Y-72642857D01*
X44452381Y-72547619D01*
X44547619Y-71833333D02*
X44500000Y-71785714D01*
X44452381Y-71690476D01*
X44452381Y-71452380D01*
X44500000Y-71357142D01*
X44547619Y-71309523D01*
X44642857Y-71261904D01*
X44738095Y-71261904D01*
X44880952Y-71309523D01*
X45452381Y-71880952D01*
X45452381Y-71261904D01*
X43952381Y-74119047D02*
X43476190Y-74452381D01*
X43952381Y-74690476D02*
X42952381Y-74690476D01*
X42952381Y-74309523D01*
X43000000Y-74214285D01*
X43047619Y-74166666D01*
X43142857Y-74119047D01*
X43285714Y-74119047D01*
X43380952Y-74166666D01*
X43428571Y-74214285D01*
X43476190Y-74309523D01*
X43476190Y-74690476D01*
X43952381Y-73166666D02*
X43952381Y-73738095D01*
X43952381Y-73452381D02*
X42952381Y-73452381D01*
X43095238Y-73547619D01*
X43190476Y-73642857D01*
X43238095Y-73738095D01*
X42952381Y-72547619D02*
X42952381Y-72452380D01*
X43000000Y-72357142D01*
X43047619Y-72309523D01*
X43142857Y-72261904D01*
X43333333Y-72214285D01*
X43571429Y-72214285D01*
X43761905Y-72261904D01*
X43857143Y-72309523D01*
X43904762Y-72357142D01*
X43952381Y-72452380D01*
X43952381Y-72547619D01*
X43904762Y-72642857D01*
X43857143Y-72690476D01*
X43761905Y-72738095D01*
X43571429Y-72785714D01*
X43333333Y-72785714D01*
X43142857Y-72738095D01*
X43047619Y-72690476D01*
X43000000Y-72642857D01*
X42952381Y-72547619D01*
X42952381Y-71880952D02*
X42952381Y-71261904D01*
X43333333Y-71595238D01*
X43333333Y-71452380D01*
X43380952Y-71357142D01*
X43428571Y-71309523D01*
X43523810Y-71261904D01*
X43761905Y-71261904D01*
X43857143Y-71309523D01*
X43904762Y-71357142D01*
X43952381Y-71452380D01*
X43952381Y-71738095D01*
X43904762Y-71833333D01*
X43857143Y-71880952D01*
X42452381Y-74119047D02*
X41976190Y-74452381D01*
X42452381Y-74690476D02*
X41452381Y-74690476D01*
X41452381Y-74309523D01*
X41500000Y-74214285D01*
X41547619Y-74166666D01*
X41642857Y-74119047D01*
X41785714Y-74119047D01*
X41880952Y-74166666D01*
X41928571Y-74214285D01*
X41976190Y-74309523D01*
X41976190Y-74690476D01*
X42452381Y-73166666D02*
X42452381Y-73738095D01*
X42452381Y-73452381D02*
X41452381Y-73452381D01*
X41595238Y-73547619D01*
X41690476Y-73642857D01*
X41738095Y-73738095D01*
X41452381Y-72547619D02*
X41452381Y-72452380D01*
X41500000Y-72357142D01*
X41547619Y-72309523D01*
X41642857Y-72261904D01*
X41833333Y-72214285D01*
X42071429Y-72214285D01*
X42261905Y-72261904D01*
X42357143Y-72309523D01*
X42404762Y-72357142D01*
X42452381Y-72452380D01*
X42452381Y-72547619D01*
X42404762Y-72642857D01*
X42357143Y-72690476D01*
X42261905Y-72738095D01*
X42071429Y-72785714D01*
X41833333Y-72785714D01*
X41642857Y-72738095D01*
X41547619Y-72690476D01*
X41500000Y-72642857D01*
X41452381Y-72547619D01*
X41785714Y-71357142D02*
X42452381Y-71357142D01*
X41404762Y-71595238D02*
X42119048Y-71833333D01*
X42119048Y-71214285D01*
X48952381Y-74119047D02*
X48476190Y-74452381D01*
X48952381Y-74690476D02*
X47952381Y-74690476D01*
X47952381Y-74309523D01*
X48000000Y-74214285D01*
X48047619Y-74166666D01*
X48142857Y-74119047D01*
X48285714Y-74119047D01*
X48380952Y-74166666D01*
X48428571Y-74214285D01*
X48476190Y-74309523D01*
X48476190Y-74690476D01*
X48047619Y-73738095D02*
X48000000Y-73690476D01*
X47952381Y-73595238D01*
X47952381Y-73357142D01*
X48000000Y-73261904D01*
X48047619Y-73214285D01*
X48142857Y-73166666D01*
X48238095Y-73166666D01*
X48380952Y-73214285D01*
X48952381Y-73785714D01*
X48952381Y-73166666D01*
X47952381Y-72547619D02*
X47952381Y-72452380D01*
X48000000Y-72357142D01*
X48047619Y-72309523D01*
X48142857Y-72261904D01*
X48333333Y-72214285D01*
X48571429Y-72214285D01*
X48761905Y-72261904D01*
X48857143Y-72309523D01*
X48904762Y-72357142D01*
X48952381Y-72452380D01*
X48952381Y-72547619D01*
X48904762Y-72642857D01*
X48857143Y-72690476D01*
X48761905Y-72738095D01*
X48571429Y-72785714D01*
X48333333Y-72785714D01*
X48142857Y-72738095D01*
X48047619Y-72690476D01*
X48000000Y-72642857D01*
X47952381Y-72547619D01*
X48952381Y-71261904D02*
X48952381Y-71833333D01*
X48952381Y-71547619D02*
X47952381Y-71547619D01*
X48095238Y-71642857D01*
X48190476Y-71738095D01*
X48238095Y-71833333D01*
X50452381Y-74119047D02*
X49976190Y-74452381D01*
X50452381Y-74690476D02*
X49452381Y-74690476D01*
X49452381Y-74309523D01*
X49500000Y-74214285D01*
X49547619Y-74166666D01*
X49642857Y-74119047D01*
X49785714Y-74119047D01*
X49880952Y-74166666D01*
X49928571Y-74214285D01*
X49976190Y-74309523D01*
X49976190Y-74690476D01*
X49547619Y-73738095D02*
X49500000Y-73690476D01*
X49452381Y-73595238D01*
X49452381Y-73357142D01*
X49500000Y-73261904D01*
X49547619Y-73214285D01*
X49642857Y-73166666D01*
X49738095Y-73166666D01*
X49880952Y-73214285D01*
X50452381Y-73785714D01*
X50452381Y-73166666D01*
X49452381Y-72547619D02*
X49452381Y-72452380D01*
X49500000Y-72357142D01*
X49547619Y-72309523D01*
X49642857Y-72261904D01*
X49833333Y-72214285D01*
X50071429Y-72214285D01*
X50261905Y-72261904D01*
X50357143Y-72309523D01*
X50404762Y-72357142D01*
X50452381Y-72452380D01*
X50452381Y-72547619D01*
X50404762Y-72642857D01*
X50357143Y-72690476D01*
X50261905Y-72738095D01*
X50071429Y-72785714D01*
X49833333Y-72785714D01*
X49642857Y-72738095D01*
X49547619Y-72690476D01*
X49500000Y-72642857D01*
X49452381Y-72547619D01*
X49547619Y-71833333D02*
X49500000Y-71785714D01*
X49452381Y-71690476D01*
X49452381Y-71452380D01*
X49500000Y-71357142D01*
X49547619Y-71309523D01*
X49642857Y-71261904D01*
X49738095Y-71261904D01*
X49880952Y-71309523D01*
X50452381Y-71880952D01*
X50452381Y-71261904D01*
X51952381Y-74119047D02*
X51476190Y-74452381D01*
X51952381Y-74690476D02*
X50952381Y-74690476D01*
X50952381Y-74309523D01*
X51000000Y-74214285D01*
X51047619Y-74166666D01*
X51142857Y-74119047D01*
X51285714Y-74119047D01*
X51380952Y-74166666D01*
X51428571Y-74214285D01*
X51476190Y-74309523D01*
X51476190Y-74690476D01*
X51047619Y-73738095D02*
X51000000Y-73690476D01*
X50952381Y-73595238D01*
X50952381Y-73357142D01*
X51000000Y-73261904D01*
X51047619Y-73214285D01*
X51142857Y-73166666D01*
X51238095Y-73166666D01*
X51380952Y-73214285D01*
X51952381Y-73785714D01*
X51952381Y-73166666D01*
X50952381Y-72547619D02*
X50952381Y-72452380D01*
X51000000Y-72357142D01*
X51047619Y-72309523D01*
X51142857Y-72261904D01*
X51333333Y-72214285D01*
X51571429Y-72214285D01*
X51761905Y-72261904D01*
X51857143Y-72309523D01*
X51904762Y-72357142D01*
X51952381Y-72452380D01*
X51952381Y-72547619D01*
X51904762Y-72642857D01*
X51857143Y-72690476D01*
X51761905Y-72738095D01*
X51571429Y-72785714D01*
X51333333Y-72785714D01*
X51142857Y-72738095D01*
X51047619Y-72690476D01*
X51000000Y-72642857D01*
X50952381Y-72547619D01*
X50952381Y-71880952D02*
X50952381Y-71261904D01*
X51333333Y-71595238D01*
X51333333Y-71452380D01*
X51380952Y-71357142D01*
X51428571Y-71309523D01*
X51523810Y-71261904D01*
X51761905Y-71261904D01*
X51857143Y-71309523D01*
X51904762Y-71357142D01*
X51952381Y-71452380D01*
X51952381Y-71738095D01*
X51904762Y-71833333D01*
X51857143Y-71880952D01*
X53452381Y-74119047D02*
X52976190Y-74452381D01*
X53452381Y-74690476D02*
X52452381Y-74690476D01*
X52452381Y-74309523D01*
X52500000Y-74214285D01*
X52547619Y-74166666D01*
X52642857Y-74119047D01*
X52785714Y-74119047D01*
X52880952Y-74166666D01*
X52928571Y-74214285D01*
X52976190Y-74309523D01*
X52976190Y-74690476D01*
X52547619Y-73738095D02*
X52500000Y-73690476D01*
X52452381Y-73595238D01*
X52452381Y-73357142D01*
X52500000Y-73261904D01*
X52547619Y-73214285D01*
X52642857Y-73166666D01*
X52738095Y-73166666D01*
X52880952Y-73214285D01*
X53452381Y-73785714D01*
X53452381Y-73166666D01*
X52452381Y-72547619D02*
X52452381Y-72452380D01*
X52500000Y-72357142D01*
X52547619Y-72309523D01*
X52642857Y-72261904D01*
X52833333Y-72214285D01*
X53071429Y-72214285D01*
X53261905Y-72261904D01*
X53357143Y-72309523D01*
X53404762Y-72357142D01*
X53452381Y-72452380D01*
X53452381Y-72547619D01*
X53404762Y-72642857D01*
X53357143Y-72690476D01*
X53261905Y-72738095D01*
X53071429Y-72785714D01*
X52833333Y-72785714D01*
X52642857Y-72738095D01*
X52547619Y-72690476D01*
X52500000Y-72642857D01*
X52452381Y-72547619D01*
X52785714Y-71357142D02*
X53452381Y-71357142D01*
X52404762Y-71595238D02*
X53119048Y-71833333D01*
X53119048Y-71214285D01*
M02*
