G04 #@! TF.FileFunction,Copper,L1,Top,Signal*
%FSLAX46Y46*%
G04 Gerber Fmt 4.6, Leading zero omitted, Abs format (unit mm)*
G04 Created by KiCad (PCBNEW 4.0.2-4+6225~38~ubuntu15.04.1-stable) date lun. 25 avril 2016 11:18:35 CEST*
%MOMM*%
G01*
G04 APERTURE LIST*
%ADD10C,0.100000*%
%ADD11C,6.400000*%
%ADD12C,0.600000*%
%ADD13C,2.540000*%
%ADD14R,2.540000X2.540000*%
%ADD15C,1.300000*%
%ADD16R,1.300000X1.300000*%
%ADD17R,1.500000X1.250000*%
%ADD18R,1.198880X1.198880*%
%ADD19R,1.727200X2.032000*%
%ADD20O,1.727200X2.032000*%
%ADD21O,3.500120X1.699260*%
%ADD22R,1.300000X1.500000*%
%ADD23C,1.700000*%
%ADD24C,1.700000*%
%ADD25C,2.540000*%
%ADD26C,0.300000*%
%ADD27C,0.150000*%
G04 APERTURE END LIST*
D10*
D11*
X71000000Y-24000000D03*
D12*
X73400000Y-24000000D03*
X72697056Y-25697056D03*
X71000000Y-26400000D03*
X69302944Y-25697056D03*
X68600000Y-24000000D03*
X69302944Y-22302944D03*
X71000000Y-21600000D03*
X72697056Y-22302944D03*
D11*
X24000000Y-24000000D03*
D12*
X26400000Y-24000000D03*
X25697056Y-25697056D03*
X24000000Y-26400000D03*
X22302944Y-25697056D03*
X21600000Y-24000000D03*
X22302944Y-22302944D03*
X24000000Y-21600000D03*
X25697056Y-22302944D03*
D11*
X71000000Y-81000000D03*
D12*
X73400000Y-81000000D03*
X72697056Y-82697056D03*
X71000000Y-83400000D03*
X69302944Y-82697056D03*
X68600000Y-81000000D03*
X69302944Y-79302944D03*
X71000000Y-78600000D03*
X72697056Y-79302944D03*
D13*
X49758780Y-36002960D03*
D14*
X64998780Y-36002960D03*
D13*
X65241220Y-61997040D03*
D14*
X50001220Y-61997040D03*
D13*
X45241220Y-67997040D03*
D14*
X30001220Y-67997040D03*
D15*
X29500000Y-54000000D03*
D16*
X32000000Y-54000000D03*
D15*
X40500000Y-54000000D03*
D16*
X43000000Y-54000000D03*
D17*
X32250000Y-48000000D03*
X29750000Y-48000000D03*
X43250000Y-48000000D03*
X40750000Y-48000000D03*
D15*
X54500000Y-54000000D03*
D16*
X52000000Y-54000000D03*
D15*
X65500000Y-54000000D03*
D16*
X63000000Y-54000000D03*
D17*
X51750000Y-48000000D03*
X54250000Y-48000000D03*
X62750000Y-48000000D03*
X65250000Y-48000000D03*
D18*
X50000000Y-22950980D03*
X50000000Y-25049020D03*
D13*
X29758780Y-42002960D03*
D14*
X44998780Y-42002960D03*
D13*
X45241220Y-35997040D03*
D14*
X30001220Y-35997040D03*
D13*
X29758780Y-62002960D03*
D14*
X44998780Y-62002960D03*
D13*
X65241220Y-41997040D03*
D14*
X50001220Y-41997040D03*
D13*
X49758780Y-68002960D03*
D14*
X64998780Y-68002960D03*
X44960000Y-81000000D03*
D13*
X50040000Y-81000000D03*
D19*
X40000000Y-81000000D03*
D20*
X37460000Y-81000000D03*
X34920000Y-81000000D03*
X32380000Y-81000000D03*
D14*
X37540000Y-24000000D03*
D13*
X32460000Y-24000000D03*
D19*
X55000000Y-81000000D03*
D20*
X57540000Y-81000000D03*
X60080000Y-81000000D03*
X62620000Y-81000000D03*
D14*
X62540000Y-24000000D03*
D13*
X57460000Y-24000000D03*
D21*
X23000000Y-34000000D03*
X23000000Y-36540000D03*
X23000000Y-31460000D03*
X23000000Y-46000000D03*
X23000000Y-48540000D03*
X23000000Y-43460000D03*
X23000000Y-58000000D03*
X23000000Y-60540000D03*
X23000000Y-55460000D03*
X23000000Y-70000000D03*
X23000000Y-72540000D03*
X23000000Y-67460000D03*
X72000000Y-34000000D03*
X72000000Y-31460000D03*
X72000000Y-36540000D03*
X72000000Y-46000000D03*
X72000000Y-43460000D03*
X72000000Y-48540000D03*
X72000000Y-58000000D03*
X72000000Y-55460000D03*
X72000000Y-60540000D03*
X72000000Y-70000000D03*
X72000000Y-67460000D03*
X72000000Y-72540000D03*
D22*
X44000000Y-25350000D03*
X44000000Y-22650000D03*
X40000000Y-73650000D03*
X40000000Y-76350000D03*
X37000000Y-73650000D03*
X37000000Y-76350000D03*
X34000000Y-76350000D03*
X34000000Y-73650000D03*
X31000000Y-76350000D03*
X31000000Y-73650000D03*
X55000000Y-73650000D03*
X55000000Y-76350000D03*
X58000000Y-73650000D03*
X58000000Y-76350000D03*
X61000000Y-76350000D03*
X61000000Y-73650000D03*
X64000000Y-76350000D03*
X64000000Y-73650000D03*
D11*
X24000000Y-81000000D03*
D12*
X26400000Y-81000000D03*
X25697056Y-82697056D03*
X24000000Y-83400000D03*
X22302944Y-82697056D03*
X21600000Y-81000000D03*
X22302944Y-79302944D03*
X24000000Y-78600000D03*
X25697056Y-79302944D03*
D23*
X68000000Y-39000000D03*
X54000000Y-39000000D03*
X51750000Y-51750000D03*
X62750000Y-51750000D03*
X43250000Y-51750000D03*
X32250000Y-51750000D03*
X41250000Y-31500000D03*
X29500000Y-31500000D03*
D12*
X27500000Y-39750000D03*
X32500000Y-39750000D03*
X41000000Y-58250000D03*
X35250000Y-58250000D03*
X39750000Y-59500000D03*
X34250000Y-59500000D03*
X26000000Y-68000000D03*
X26000000Y-72000000D03*
X60000000Y-57250000D03*
X53250000Y-57250000D03*
X65000000Y-31500000D03*
X60000000Y-31500000D03*
X54250000Y-58000000D03*
X61000000Y-58000000D03*
X66000000Y-45500000D03*
X55250000Y-58750000D03*
X60000000Y-58750000D03*
X68750000Y-72250000D03*
D24*
X50000000Y-25049020D02*
X50000000Y-35761740D01*
X50000000Y-35761740D02*
X49758780Y-36002960D01*
X29500000Y-54000000D02*
X29500000Y-48250000D01*
X29500000Y-48250000D02*
X29750000Y-48000000D01*
X65500000Y-54000000D02*
X65500000Y-48250000D01*
X65500000Y-48250000D02*
X65250000Y-48000000D01*
X54500000Y-54000000D02*
X54500000Y-48250000D01*
X54500000Y-48250000D02*
X54250000Y-48000000D01*
X40500000Y-54000000D02*
X40500000Y-48250000D01*
X40500000Y-48250000D02*
X40750000Y-48000000D01*
D25*
X53000000Y-39000000D02*
X54000000Y-39000000D01*
X50002960Y-41997040D02*
X53000000Y-39000000D01*
D24*
X43250000Y-48000000D02*
X43250000Y-40016753D01*
X43500000Y-41000000D02*
X43500000Y-40300098D01*
X43500000Y-40266753D02*
X43500000Y-41000000D01*
X43250000Y-40016753D02*
X43500000Y-40266753D01*
X51750000Y-48000000D02*
X51750000Y-42500000D01*
X51750000Y-42500000D02*
X52500000Y-41750000D01*
D25*
X54000000Y-39000000D02*
X54000000Y-43250000D01*
X54000000Y-43250000D02*
X50001220Y-47248780D01*
X44998780Y-42002960D02*
X44998780Y-41998780D01*
X44998780Y-41998780D02*
X43500000Y-40300098D01*
X43500000Y-40300098D02*
X41250000Y-37750000D01*
X41250000Y-37750000D02*
X41250000Y-31500000D01*
D24*
X44000000Y-25350000D02*
X44000000Y-28250000D01*
X44000000Y-28250000D02*
X41250000Y-31500000D01*
D25*
X44998780Y-42002960D02*
X49995300Y-42002960D01*
X49995300Y-42002960D02*
X50001220Y-41997040D01*
X47500000Y-62002960D02*
X47500000Y-42000000D01*
X44998780Y-62002960D02*
X44998780Y-42002960D01*
X50001220Y-41997040D02*
X50002960Y-41997040D01*
X50001220Y-61997040D02*
X50001220Y-47248780D01*
X50001220Y-47248780D02*
X50001220Y-41997040D01*
X44998780Y-62002960D02*
X47500000Y-62002960D01*
X47500000Y-62002960D02*
X49995300Y-62002960D01*
X49995300Y-62002960D02*
X50001220Y-61997040D01*
X44960000Y-81000000D02*
X44960000Y-74000000D01*
X44960000Y-74000000D02*
X42020002Y-71060002D01*
X42020002Y-64981738D02*
X44998780Y-62002960D01*
X42020002Y-71060002D02*
X42020002Y-64981738D01*
D24*
X68000000Y-39000000D02*
X70460000Y-36540000D01*
X53000000Y-39000000D02*
X54000000Y-39000000D01*
X50002960Y-41997040D02*
X53000000Y-39000000D01*
X70460000Y-36540000D02*
X72000000Y-36540000D01*
X50498260Y-41500000D02*
X50001220Y-41997040D01*
X43000000Y-54000000D02*
X43000000Y-52000000D01*
X43000000Y-52000000D02*
X43250000Y-51750000D01*
X52000000Y-54000000D02*
X52000000Y-52000000D01*
X52000000Y-52000000D02*
X51750000Y-51750000D01*
X50001220Y-61997040D02*
X50001220Y-55998780D01*
X50001220Y-55998780D02*
X52000000Y-54000000D01*
X44998780Y-62002960D02*
X44998780Y-55998780D01*
X44998780Y-55998780D02*
X43000000Y-54000000D01*
X44998780Y-62002960D02*
X44998780Y-61498780D01*
X23000000Y-55460000D02*
X26960000Y-55460000D01*
X32000000Y-56000000D02*
X32000000Y-54000000D01*
X30750000Y-57250000D02*
X32000000Y-56000000D01*
X28750000Y-57250000D02*
X30750000Y-57250000D01*
X26960000Y-55460000D02*
X28750000Y-57250000D01*
X51750000Y-48000000D02*
X51500000Y-48000000D01*
X51500000Y-48000000D02*
X50001220Y-46501220D01*
X50001220Y-46501220D02*
X50001220Y-41997040D01*
X43250000Y-48000000D02*
X44750000Y-46500000D01*
X44750000Y-46500000D02*
X44750000Y-42251740D01*
X44750000Y-42251740D02*
X44998780Y-42002960D01*
X43250000Y-48000000D02*
X43250000Y-51750000D01*
X23000000Y-31460000D02*
X29460000Y-31460000D01*
X29460000Y-31460000D02*
X29500000Y-31500000D01*
X44960000Y-74000000D02*
X44960000Y-73960000D01*
X42000000Y-70000000D02*
X42000000Y-65001740D01*
X42000000Y-65001740D02*
X44998780Y-62002960D01*
X44960000Y-73960000D02*
X42000000Y-71000000D01*
X42000000Y-71000000D02*
X42000000Y-70000000D01*
X45004700Y-41997040D02*
X44998780Y-42002960D01*
X50001220Y-61997040D02*
X45004700Y-61997040D01*
X45004700Y-61997040D02*
X44998780Y-62002960D01*
X32250000Y-48000000D02*
X32250000Y-51750000D01*
X32250000Y-51750000D02*
X32250000Y-53750000D01*
X32250000Y-53750000D02*
X32000000Y-54000000D01*
X62750000Y-48000000D02*
X62750000Y-51750000D01*
X62750000Y-51750000D02*
X62750000Y-53750000D01*
X62750000Y-53750000D02*
X63000000Y-54000000D01*
X51750000Y-48000000D02*
X51750000Y-51750000D01*
D26*
X50000000Y-22950980D02*
X44300980Y-22950980D01*
X44300980Y-22950980D02*
X44000000Y-22650000D01*
D27*
X44300980Y-22950980D02*
X44000000Y-22650000D01*
D24*
X30001220Y-35997040D02*
X30001220Y-34498780D01*
X30001220Y-34498780D02*
X32460000Y-32040000D01*
X28000000Y-34000000D02*
X31998260Y-34000000D01*
X31998260Y-34000000D02*
X32460000Y-33538260D01*
D25*
X32460000Y-24000000D02*
X32460000Y-32040000D01*
X32460000Y-32040000D02*
X32460000Y-33538260D01*
X32460000Y-33538260D02*
X30001220Y-35997040D01*
X30001220Y-35997040D02*
X30001220Y-41760520D01*
X30001220Y-41760520D02*
X29758780Y-42002960D01*
D24*
X23000000Y-46000000D02*
X25761740Y-46000000D01*
X25761740Y-46000000D02*
X29758780Y-42002960D01*
X32460000Y-33538260D02*
X30001220Y-35997040D01*
X23000000Y-34000000D02*
X28000000Y-34000000D01*
X28000000Y-34000000D02*
X28004180Y-34000000D01*
X28004180Y-34000000D02*
X30001220Y-35997040D01*
X29758780Y-42002960D02*
X29758780Y-36239480D01*
X29758780Y-36239480D02*
X30001220Y-35997040D01*
X32500000Y-62002960D02*
X31997040Y-62002960D01*
X30000000Y-64500000D02*
X30001220Y-64500000D01*
X30001220Y-64498780D02*
X30000000Y-64500000D01*
X30001220Y-63998780D02*
X30001220Y-64498780D01*
X31997040Y-62002960D02*
X30001220Y-63998780D01*
D25*
X37540000Y-39000000D02*
X37540000Y-28710000D01*
X37540000Y-59460000D02*
X37540000Y-39000000D01*
X37540000Y-28710000D02*
X37540000Y-24000000D01*
X29758780Y-62002960D02*
X32500000Y-62002960D01*
X32500000Y-62002960D02*
X34997040Y-62002960D01*
X34997040Y-62002960D02*
X37540000Y-59460000D01*
X30001220Y-67997040D02*
X30001220Y-64500000D01*
X30001220Y-64500000D02*
X30001220Y-62245400D01*
X30001220Y-62245400D02*
X29758780Y-62002960D01*
D24*
X34997040Y-62002960D02*
X37540000Y-59460000D01*
X23000000Y-58000000D02*
X25755820Y-58000000D01*
X25755820Y-58000000D02*
X29758780Y-62002960D01*
X29758780Y-62002960D02*
X29758780Y-67754600D01*
X29758780Y-67754600D02*
X30001220Y-67997040D01*
X23000000Y-70000000D02*
X27998260Y-70000000D01*
X27998260Y-70000000D02*
X30001220Y-67997040D01*
X65000000Y-34000000D02*
X62540000Y-31540000D01*
X63000000Y-32000000D02*
X62540000Y-32000000D01*
X62540000Y-31540000D02*
X63000000Y-32000000D01*
X72000000Y-34000000D02*
X65000000Y-34000000D01*
X65000000Y-34000000D02*
X62995820Y-34000000D01*
X62995820Y-34000000D02*
X62540000Y-33544180D01*
D25*
X64998780Y-36002960D02*
X64998780Y-41754600D01*
X64998780Y-41754600D02*
X65241220Y-41997040D01*
X62540000Y-24000000D02*
X62540000Y-32000000D01*
X62540000Y-32000000D02*
X62540000Y-33544180D01*
X62540000Y-33544180D02*
X64998780Y-36002960D01*
D24*
X72000000Y-46000000D02*
X69244180Y-46000000D01*
X69244180Y-46000000D02*
X65241220Y-41997040D01*
X62540000Y-33544180D02*
X64998780Y-36002960D01*
X72000000Y-34000000D02*
X67001740Y-34000000D01*
X67001740Y-34000000D02*
X64998780Y-36002960D01*
X65241220Y-41997040D02*
X65241220Y-36245400D01*
X65241220Y-36245400D02*
X64998780Y-36002960D01*
X64998780Y-64000000D02*
X64998780Y-63998780D01*
X64998780Y-63998780D02*
X62997040Y-61997040D01*
D25*
X64998780Y-68002960D02*
X64998780Y-64000000D01*
X64998780Y-64000000D02*
X64998780Y-62239480D01*
X64998780Y-62239480D02*
X65241220Y-61997040D01*
X65241220Y-61997040D02*
X62997040Y-61997040D01*
X62997040Y-61997040D02*
X59997040Y-61997040D01*
X57500000Y-59500000D02*
X59997040Y-61997040D01*
X57460000Y-59500000D02*
X57460000Y-24000000D01*
X57460000Y-59500000D02*
X57500000Y-59500000D01*
D24*
X72000000Y-58000000D02*
X69238260Y-58000000D01*
X69238260Y-58000000D02*
X65241220Y-61997040D01*
X72000000Y-70000000D02*
X66995820Y-70000000D01*
X66995820Y-70000000D02*
X64998780Y-68002960D01*
X65241220Y-61997040D02*
X65241220Y-67760520D01*
X65241220Y-67760520D02*
X64998780Y-68002960D01*
D26*
X40000000Y-81000000D02*
X40000000Y-76350000D01*
X37000000Y-76350000D02*
X37000000Y-80540000D01*
X37000000Y-80540000D02*
X37460000Y-81000000D01*
D27*
X37000000Y-80540000D02*
X37460000Y-81000000D01*
D26*
X34920000Y-81000000D02*
X34000000Y-80080000D01*
X34000000Y-80080000D02*
X34000000Y-76350000D01*
D27*
X34000000Y-76350000D02*
X34000000Y-80080000D01*
D26*
X32380000Y-81000000D02*
X31000000Y-79620000D01*
X31000000Y-79620000D02*
X31000000Y-76350000D01*
D27*
X31000000Y-76350000D02*
X31000000Y-79620000D01*
D26*
X55000000Y-76350000D02*
X55000000Y-81000000D01*
X58000000Y-76350000D02*
X58000000Y-80540000D01*
X58000000Y-80540000D02*
X57540000Y-81000000D01*
D27*
X58000000Y-80540000D02*
X57540000Y-81000000D01*
D26*
X61000000Y-76350000D02*
X61000000Y-80080000D01*
X61000000Y-80080000D02*
X60080000Y-81000000D01*
D27*
X61000000Y-80080000D02*
X60080000Y-81000000D01*
D26*
X64000000Y-76350000D02*
X64000000Y-79620000D01*
X64000000Y-79620000D02*
X62620000Y-81000000D01*
D27*
X64000000Y-79620000D02*
X62620000Y-81000000D01*
D26*
X35250000Y-43000000D02*
X35250000Y-42500000D01*
X35250000Y-42500000D02*
X32500000Y-39750000D01*
X23000000Y-36540000D02*
X24290000Y-36540000D01*
X24290000Y-36540000D02*
X27500000Y-39750000D01*
X24540000Y-36540000D02*
X23000000Y-36540000D01*
X23000000Y-36540000D02*
X24540000Y-36540000D01*
X41000000Y-62500000D02*
X40000000Y-63500000D01*
X41000000Y-61000000D02*
X41000000Y-62500000D01*
X41000000Y-58250000D02*
X41000000Y-61000000D01*
X40000000Y-63500000D02*
X40000000Y-69250000D01*
X40000000Y-69250000D02*
X40000000Y-73650000D01*
X35250000Y-58250000D02*
X35250000Y-43000000D01*
X37000000Y-64500000D02*
X37000000Y-67250000D01*
X39750000Y-61750000D02*
X37000000Y-64500000D01*
X39750000Y-59500000D02*
X39750000Y-61750000D01*
X37000000Y-73650000D02*
X37000000Y-67250000D01*
X23000000Y-48540000D02*
X25710000Y-48540000D01*
X25710000Y-48540000D02*
X28000000Y-46250000D01*
X28000000Y-46250000D02*
X33500000Y-46250000D01*
X33500000Y-46250000D02*
X34250000Y-47000000D01*
X34250000Y-47000000D02*
X34250000Y-59500000D01*
D27*
X34250000Y-47000000D02*
X34250000Y-59500000D01*
X33500000Y-46250000D02*
X34250000Y-47000000D01*
X28000000Y-46250000D02*
X33500000Y-46250000D01*
X25710000Y-48540000D02*
X28000000Y-46250000D01*
D26*
X23000000Y-60540000D02*
X23040000Y-60540000D01*
X23040000Y-60540000D02*
X26000000Y-63500000D01*
X26000000Y-63500000D02*
X26000000Y-68000000D01*
X26000000Y-72000000D02*
X32350000Y-72000000D01*
X32350000Y-72000000D02*
X34000000Y-73650000D01*
X23000000Y-60540000D02*
X22540000Y-59790000D01*
X23000000Y-60540000D02*
X23000000Y-60750000D01*
D27*
X23500000Y-60750000D02*
X23000000Y-60540000D01*
D26*
X27150000Y-73650000D02*
X24110000Y-73650000D01*
X24110000Y-73650000D02*
X23000000Y-72540000D01*
X31000000Y-73650000D02*
X27150000Y-73650000D01*
X53250000Y-57250000D02*
X53250000Y-63500000D01*
X55000000Y-65250000D02*
X55000000Y-70750000D01*
X53250000Y-63500000D02*
X55000000Y-65250000D01*
X55000000Y-70750000D02*
X55000000Y-73650000D01*
X60000000Y-57250000D02*
X60000000Y-31500000D01*
X65000000Y-31500000D02*
X71960000Y-31500000D01*
X71960000Y-31500000D02*
X72000000Y-31460000D01*
D27*
X72000000Y-31460000D02*
X65040000Y-31460000D01*
X65040000Y-31460000D02*
X65000000Y-31500000D01*
D26*
X61000000Y-56250000D02*
X61000000Y-46750000D01*
X61000000Y-46750000D02*
X62000000Y-45750000D01*
X54250000Y-58000000D02*
X54250000Y-63500000D01*
X54250000Y-63500000D02*
X58000000Y-67250000D01*
X61000000Y-56250000D02*
X61000000Y-58000000D01*
X62250000Y-45500000D02*
X66000000Y-45500000D01*
X62000000Y-45750000D02*
X62250000Y-45500000D01*
X58000000Y-67250000D02*
X58000000Y-73650000D01*
D27*
X58000000Y-67250000D02*
X58000000Y-73650000D01*
D26*
X55250000Y-58750000D02*
X55250000Y-63500000D01*
X61000000Y-69250000D02*
X61000000Y-70750000D01*
X55250000Y-63500000D02*
X61000000Y-69250000D01*
X60000000Y-58750000D02*
X64750000Y-58750000D01*
X64750000Y-58750000D02*
X65000000Y-58500000D01*
X65000000Y-58500000D02*
X68040000Y-55460000D01*
X68040000Y-55460000D02*
X72000000Y-55460000D01*
X61000000Y-73650000D02*
X61000000Y-70750000D01*
D27*
X72000000Y-55460000D02*
X68040000Y-55460000D01*
D26*
X71960000Y-67500000D02*
X72000000Y-67460000D01*
X64500000Y-73650000D02*
X67600000Y-73650000D01*
X67600000Y-73650000D02*
X68750000Y-72250000D01*
D27*
X67600000Y-73650000D02*
X68750000Y-72250000D01*
M02*
